<?xml version="1.0" encoding="utf-8" standalone="no"?>
<!DOCTYPE svg PUBLIC "-//W3C//DTD SVG 1.1//EN"
  "http://www.w3.org/Graphics/SVG/1.1/DTD/svg11.dtd">
<!-- Created with matplotlib (https://matplotlib.org/) -->
<svg height="576pt" version="1.1" viewBox="0 0 1440 576" width="1440pt" xmlns="http://www.w3.org/2000/svg" xmlns:xlink="http://www.w3.org/1999/xlink">
 <metadata>
  <rdf:RDF xmlns:cc="http://creativecommons.org/ns#" xmlns:dc="http://purl.org/dc/elements/1.1/" xmlns:rdf="http://www.w3.org/1999/02/22-rdf-syntax-ns#">
   <cc:Work>
    <dc:type rdf:resource="http://purl.org/dc/dcmitype/StillImage"/>
    <dc:date>2021-01-12T10:48:37.739003</dc:date>
    <dc:format>image/svg+xml</dc:format>
    <dc:creator>
     <cc:Agent>
      <dc:title>Matplotlib v3.3.3, https://matplotlib.org/</dc:title>
     </cc:Agent>
    </dc:creator>
   </cc:Work>
  </rdf:RDF>
 </metadata>
 <defs>
  <style type="text/css">*{stroke-linecap:butt;stroke-linejoin:round;}</style>
 </defs>
 <g id="figure_1">
  <g id="patch_1">
   <path d="M 0 576 
L 1440 576 
L 1440 0 
L 0 0 
z
" style="fill:#ffffff;"/>
  </g>
  <g id="axes_1">
   <g id="patch_2">
    <path d="M 180 512.64 
L 1296 512.64 
L 1296 69.12 
L 180 69.12 
z
" style="fill:#ffffff;"/>
   </g>
   <g id="patch_3">
    <path clip-path="url(#pc017d19570)" d="M 180 124.56 
L 295.448276 124.56 
L 295.448276 161.52 
L 180 161.52 
z
" style="fill:#ffff00;opacity:0.8;stroke:#ffff00;stroke-linejoin:miter;"/>
   </g>
   <g id="patch_4">
    <path clip-path="url(#pc017d19570)" d="M 526.344828 124.56 
L 564.827586 124.56 
L 564.827586 161.52 
L 526.344828 161.52 
z
" style="fill:#cd853f;opacity:0.8;stroke:#cd853f;stroke-linejoin:miter;"/>
   </g>
   <g id="patch_5">
    <path clip-path="url(#pc017d19570)" d="M 295.448276 124.56 
L 372.413793 124.56 
L 372.413793 161.52 
L 295.448276 161.52 
z
" style="fill:#fff5ee;opacity:0.8;stroke:#fff5ee;stroke-linejoin:miter;"/>
   </g>
   <g id="patch_6">
    <path clip-path="url(#pc017d19570)" d="M 449.37931 124.56 
L 526.344828 124.56 
L 526.344828 161.52 
L 449.37931 161.52 
z
" style="fill:#cd853f;opacity:0.8;stroke:#cd853f;stroke-linejoin:miter;"/>
   </g>
   <g id="patch_7">
    <path clip-path="url(#pc017d19570)" d="M 372.413793 124.56 
L 410.896552 124.56 
L 410.896552 161.52 
L 372.413793 161.52 
z
" style="fill:#e0ffff;opacity:0.8;stroke:#e0ffff;stroke-linejoin:miter;"/>
   </g>
   <g id="patch_8">
    <path clip-path="url(#pc017d19570)" d="M 564.827586 124.56 
L 641.793103 124.56 
L 641.793103 161.52 
L 564.827586 161.52 
z
" style="fill:#0000cd;opacity:0.8;stroke:#0000cd;stroke-linejoin:miter;"/>
   </g>
   <g id="patch_9">
    <path clip-path="url(#pc017d19570)" d="M 641.793103 124.56 
L 680.275862 124.56 
L 680.275862 161.52 
L 641.793103 161.52 
z
" style="fill:#a0522d;opacity:0.8;stroke:#a0522d;stroke-linejoin:miter;"/>
   </g>
   <g id="patch_10">
    <path clip-path="url(#pc017d19570)" d="M 795.724138 124.56 
L 872.689655 124.56 
L 872.689655 161.52 
L 795.724138 161.52 
z
" style="fill:#f0fff0;opacity:0.8;stroke:#f0fff0;stroke-linejoin:miter;"/>
   </g>
   <g id="patch_11">
    <path clip-path="url(#pc017d19570)" d="M 680.275862 124.56 
L 757.241379 124.56 
L 757.241379 161.52 
L 680.275862 161.52 
z
" style="fill:#663399;opacity:0.8;stroke:#663399;stroke-linejoin:miter;"/>
   </g>
   <g id="patch_12">
    <path clip-path="url(#pc017d19570)" d="M 911.172414 124.56 
L 1026.62069 124.56 
L 1026.62069 161.52 
L 911.172414 161.52 
z
" style="fill:#d3d3d3;opacity:0.8;stroke:#d3d3d3;stroke-linejoin:miter;"/>
   </g>
   <g id="patch_13">
    <path clip-path="url(#pc017d19570)" d="M 1026.62069 124.56 
L 1142.068966 124.56 
L 1142.068966 161.52 
L 1026.62069 161.52 
z
" style="fill:#fa8072;opacity:0.8;stroke:#fa8072;stroke-linejoin:miter;"/>
   </g>
   <g id="patch_14">
    <path clip-path="url(#pc017d19570)" d="M 180 186.16 
L 410.896552 186.16 
L 410.896552 223.12 
L 180 223.12 
z
" style="fill:#b8860b;opacity:0.8;stroke:#b8860b;stroke-linejoin:miter;"/>
   </g>
   <g id="patch_15">
    <path clip-path="url(#pc017d19570)" d="M 410.896552 186.16 
L 641.793103 186.16 
L 641.793103 223.12 
L 410.896552 223.12 
z
" style="fill:#9932cc;opacity:0.8;stroke:#9932cc;stroke-linejoin:miter;"/>
   </g>
   <g id="patch_16">
    <path clip-path="url(#pc017d19570)" d="M 641.793103 186.16 
L 872.689655 186.16 
L 872.689655 223.12 
L 641.793103 223.12 
z
" style="fill:#00fa9a;opacity:0.8;stroke:#00fa9a;stroke-linejoin:miter;"/>
   </g>
   <g id="patch_17">
    <path clip-path="url(#pc017d19570)" d="M 872.689655 186.16 
L 911.172414 186.16 
L 911.172414 223.12 
L 872.689655 223.12 
z
" style="fill:#9acd32;opacity:0.8;stroke:#9acd32;stroke-linejoin:miter;"/>
   </g>
   <g id="patch_18">
    <path clip-path="url(#pc017d19570)" d="M 911.172414 186.16 
L 1142.068966 186.16 
L 1142.068966 223.12 
L 911.172414 223.12 
z
" style="fill:#808080;opacity:0.8;stroke:#808080;stroke-linejoin:miter;"/>
   </g>
   <g id="patch_19">
    <path clip-path="url(#pc017d19570)" d="M 1142.068966 186.16 
L 1257.517241 186.16 
L 1257.517241 223.12 
L 1142.068966 223.12 
z
" style="fill:#00ff00;opacity:0.8;stroke:#00ff00;stroke-linejoin:miter;"/>
   </g>
   <g id="patch_20">
    <path clip-path="url(#pc017d19570)" d="M 1257.517241 186.16 
L 1296 186.16 
L 1296 223.12 
L 1257.517241 223.12 
z
" style="fill:#b8860b;opacity:0.8;stroke:#b8860b;stroke-linejoin:miter;"/>
   </g>
   <g id="patch_21">
    <path clip-path="url(#pc017d19570)" d="M 180 247.76 
L 295.448276 247.76 
L 295.448276 284.72 
L 180 284.72 
z
" style="fill:#708090;opacity:0.8;stroke:#708090;stroke-linejoin:miter;"/>
   </g>
   <g id="patch_22">
    <path clip-path="url(#pc017d19570)" d="M 295.448276 247.76 
L 449.37931 247.76 
L 449.37931 284.72 
L 295.448276 284.72 
z
" style="fill:#800080;opacity:0.8;stroke:#800080;stroke-linejoin:miter;"/>
   </g>
   <g id="patch_23">
    <path clip-path="url(#pc017d19570)" d="M 449.37931 247.76 
L 603.310345 247.76 
L 603.310345 284.72 
L 449.37931 284.72 
z
" style="fill:#7fffd4;opacity:0.8;stroke:#7fffd4;stroke-linejoin:miter;"/>
   </g>
   <g id="patch_24">
    <path clip-path="url(#pc017d19570)" d="M 603.310345 247.76 
L 718.758621 247.76 
L 718.758621 284.72 
L 603.310345 284.72 
z
" style="fill:#90ee90;opacity:0.8;stroke:#90ee90;stroke-linejoin:miter;"/>
   </g>
   <g id="patch_25">
    <path clip-path="url(#pc017d19570)" d="M 718.758621 247.76 
L 834.206897 247.76 
L 834.206897 284.72 
L 718.758621 284.72 
z
" style="fill:#f5f5f5;opacity:0.8;stroke:#f5f5f5;stroke-linejoin:miter;"/>
   </g>
   <g id="patch_26">
    <path clip-path="url(#pc017d19570)" d="M 834.206897 247.76 
L 911.172414 247.76 
L 911.172414 284.72 
L 834.206897 284.72 
z
" style="fill:#fffafa;opacity:0.8;stroke:#fffafa;stroke-linejoin:miter;"/>
   </g>
   <g id="patch_27">
    <path clip-path="url(#pc017d19570)" d="M 1026.62069 247.76 
L 1142.068966 247.76 
L 1142.068966 284.72 
L 1026.62069 284.72 
z
" style="fill:#9400d3;opacity:0.8;stroke:#9400d3;stroke-linejoin:miter;"/>
   </g>
   <g id="patch_28">
    <path clip-path="url(#pc017d19570)" d="M 1142.068966 247.76 
L 1257.517241 247.76 
L 1257.517241 284.72 
L 1142.068966 284.72 
z
" style="fill:#ff00ff;opacity:0.8;stroke:#ff00ff;stroke-linejoin:miter;"/>
   </g>
   <g id="patch_29">
    <path clip-path="url(#pc017d19570)" d="M 180 309.36 
L 295.448276 309.36 
L 295.448276 346.32 
L 180 346.32 
z
" style="fill:#800080;opacity:0.8;stroke:#800080;stroke-linejoin:miter;"/>
   </g>
   <g id="patch_30">
    <path clip-path="url(#pc017d19570)" d="M 295.448276 309.36 
L 372.413793 309.36 
L 372.413793 346.32 
L 295.448276 346.32 
z
" style="fill:#4b0082;opacity:0.8;stroke:#4b0082;stroke-linejoin:miter;"/>
   </g>
   <g id="patch_31">
    <path clip-path="url(#pc017d19570)" d="M 372.413793 309.36 
L 410.896552 309.36 
L 410.896552 346.32 
L 372.413793 346.32 
z
" style="fill:#ffd700;opacity:0.8;stroke:#ffd700;stroke-linejoin:miter;"/>
   </g>
   <g id="patch_32">
    <path clip-path="url(#pc017d19570)" d="M 410.896552 309.36 
L 603.310345 309.36 
L 603.310345 346.32 
L 410.896552 346.32 
z
" style="fill:#f8f8ff;opacity:0.8;stroke:#f8f8ff;stroke-linejoin:miter;"/>
   </g>
   <g id="patch_33">
    <path clip-path="url(#pc017d19570)" d="M 603.310345 309.36 
L 718.758621 309.36 
L 718.758621 346.32 
L 603.310345 346.32 
z
" style="fill:#dcdcdc;opacity:0.8;stroke:#dcdcdc;stroke-linejoin:miter;"/>
   </g>
   <g id="patch_34">
    <path clip-path="url(#pc017d19570)" d="M 718.758621 309.36 
L 795.724138 309.36 
L 795.724138 346.32 
L 718.758621 346.32 
z
" style="fill:#808000;opacity:0.8;stroke:#808000;stroke-linejoin:miter;"/>
   </g>
   <g id="patch_35">
    <path clip-path="url(#pc017d19570)" d="M 988.137931 309.36 
L 1026.62069 309.36 
L 1026.62069 346.32 
L 988.137931 346.32 
z
" style="opacity:0.8;stroke:#000000;stroke-linejoin:miter;"/>
   </g>
   <g id="patch_36">
    <path clip-path="url(#pc017d19570)" d="M 1257.517241 309.36 
L 1296 309.36 
L 1296 346.32 
L 1257.517241 346.32 
z
" style="fill:#b0c4de;opacity:0.8;stroke:#b0c4de;stroke-linejoin:miter;"/>
   </g>
   <g id="patch_37">
    <path clip-path="url(#pc017d19570)" d="M 872.689655 309.36 
L 949.655172 309.36 
L 949.655172 346.32 
L 872.689655 346.32 
z
" style="fill:#d2b48c;opacity:0.8;stroke:#d2b48c;stroke-linejoin:miter;"/>
   </g>
   <g id="patch_38">
    <path clip-path="url(#pc017d19570)" d="M 1026.62069 309.36 
L 1219.034483 309.36 
L 1219.034483 346.32 
L 1026.62069 346.32 
z
" style="fill:#48d1cc;opacity:0.8;stroke:#48d1cc;stroke-linejoin:miter;"/>
   </g>
   <g id="patch_39">
    <path clip-path="url(#pc017d19570)" d="M 180 370.96 
L 256.965517 370.96 
L 256.965517 407.92 
L 180 407.92 
z
" style="fill:#6495ed;opacity:0.8;stroke:#6495ed;stroke-linejoin:miter;"/>
   </g>
   <g id="patch_40">
    <path clip-path="url(#pc017d19570)" d="M 256.965517 370.96 
L 372.413793 370.96 
L 372.413793 407.92 
L 256.965517 407.92 
z
" style="fill:#ffefd5;opacity:0.8;stroke:#ffefd5;stroke-linejoin:miter;"/>
   </g>
   <g id="patch_41">
    <path clip-path="url(#pc017d19570)" d="M 372.413793 370.96 
L 449.37931 370.96 
L 449.37931 407.92 
L 372.413793 407.92 
z
" style="fill:#fffff0;opacity:0.8;stroke:#fffff0;stroke-linejoin:miter;"/>
   </g>
   <g id="patch_42">
    <path clip-path="url(#pc017d19570)" d="M 449.37931 370.96 
L 564.827586 370.96 
L 564.827586 407.92 
L 449.37931 407.92 
z
" style="fill:#008000;opacity:0.8;stroke:#008000;stroke-linejoin:miter;"/>
   </g>
   <g id="patch_43">
    <path clip-path="url(#pc017d19570)" d="M 641.793103 370.96 
L 718.758621 370.96 
L 718.758621 407.92 
L 641.793103 407.92 
z
" style="fill:#778899;opacity:0.8;stroke:#778899;stroke-linejoin:miter;"/>
   </g>
   <g id="patch_44">
    <path clip-path="url(#pc017d19570)" d="M 564.827586 370.96 
L 641.793103 370.96 
L 641.793103 407.92 
L 564.827586 407.92 
z
" style="fill:#87ceeb;opacity:0.8;stroke:#87ceeb;stroke-linejoin:miter;"/>
   </g>
   <g id="patch_45">
    <path clip-path="url(#pc017d19570)" d="M 718.758621 370.96 
L 795.724138 370.96 
L 795.724138 407.92 
L 718.758621 407.92 
z
" style="fill:#48d1cc;opacity:0.8;stroke:#48d1cc;stroke-linejoin:miter;"/>
   </g>
   <g id="patch_46">
    <path clip-path="url(#pc017d19570)" d="M 795.724138 370.96 
L 911.172414 370.96 
L 911.172414 407.92 
L 795.724138 407.92 
z
" style="fill:#008b8b;opacity:0.8;stroke:#008b8b;stroke-linejoin:miter;"/>
   </g>
   <g id="patch_47">
    <path clip-path="url(#pc017d19570)" d="M 911.172414 370.96 
L 988.137931 370.96 
L 988.137931 407.92 
L 911.172414 407.92 
z
" style="fill:#ff4500;opacity:0.8;stroke:#ff4500;stroke-linejoin:miter;"/>
   </g>
   <g id="patch_48">
    <path clip-path="url(#pc017d19570)" d="M 988.137931 370.96 
L 1142.068966 370.96 
L 1142.068966 407.92 
L 988.137931 407.92 
z
" style="fill:#7fff00;opacity:0.8;stroke:#7fff00;stroke-linejoin:miter;"/>
   </g>
   <g id="patch_49">
    <path clip-path="url(#pc017d19570)" d="M 1142.068966 370.96 
L 1257.517241 370.96 
L 1257.517241 407.92 
L 1142.068966 407.92 
z
" style="fill:#daa520;opacity:0.8;stroke:#daa520;stroke-linejoin:miter;"/>
   </g>
   <g id="patch_50">
    <path clip-path="url(#pc017d19570)" d="M 180 432.56 
L 295.448276 432.56 
L 295.448276 469.52 
L 180 469.52 
z
" style="fill:#556b2f;opacity:0.8;stroke:#556b2f;stroke-linejoin:miter;"/>
   </g>
   <g id="patch_51">
    <path clip-path="url(#pc017d19570)" d="M 295.448276 432.56 
L 333.931034 432.56 
L 333.931034 469.52 
L 295.448276 469.52 
z
" style="fill:#00bfff;opacity:0.8;stroke:#00bfff;stroke-linejoin:miter;"/>
   </g>
   <g id="patch_52">
    <path clip-path="url(#pc017d19570)" d="M 333.931034 432.56 
L 526.344828 432.56 
L 526.344828 469.52 
L 333.931034 469.52 
z
" style="fill:#696969;opacity:0.8;stroke:#696969;stroke-linejoin:miter;"/>
   </g>
   <g id="patch_53">
    <path clip-path="url(#pc017d19570)" d="M 526.344828 432.56 
L 641.793103 432.56 
L 641.793103 469.52 
L 526.344828 469.52 
z
" style="fill:#b22222;opacity:0.8;stroke:#b22222;stroke-linejoin:miter;"/>
   </g>
   <g id="patch_54">
    <path clip-path="url(#pc017d19570)" d="M 641.793103 432.56 
L 757.241379 432.56 
L 757.241379 469.52 
L 641.793103 469.52 
z
" style="fill:#800080;opacity:0.8;stroke:#800080;stroke-linejoin:miter;"/>
   </g>
   <g id="patch_55">
    <path clip-path="url(#pc017d19570)" d="M 757.241379 432.56 
L 872.689655 432.56 
L 872.689655 469.52 
L 757.241379 469.52 
z
" style="fill:#add8e6;opacity:0.8;stroke:#add8e6;stroke-linejoin:miter;"/>
   </g>
   <g id="patch_56">
    <path clip-path="url(#pc017d19570)" d="M 872.689655 432.56 
L 988.137931 432.56 
L 988.137931 469.52 
L 872.689655 469.52 
z
" style="fill:#ffa500;opacity:0.8;stroke:#ffa500;stroke-linejoin:miter;"/>
   </g>
   <g id="patch_57">
    <path clip-path="url(#pc017d19570)" d="M 988.137931 432.56 
L 1103.586207 432.56 
L 1103.586207 469.52 
L 988.137931 469.52 
z
" style="fill:#808080;opacity:0.8;stroke:#808080;stroke-linejoin:miter;"/>
   </g>
   <g id="patch_58">
    <path clip-path="url(#pc017d19570)" d="M 1142.068966 432.56 
L 1257.517241 432.56 
L 1257.517241 469.52 
L 1142.068966 469.52 
z
" style="fill:#20b2aa;opacity:0.8;stroke:#20b2aa;stroke-linejoin:miter;"/>
   </g>
   <g id="patch_59">
    <path clip-path="url(#pc017d19570)" d="M 1257.517241 432.56 
L 1296 432.56 
L 1296 469.52 
L 1257.517241 469.52 
z
" style="fill:#8b4513;opacity:0.8;stroke:#8b4513;stroke-linejoin:miter;"/>
   </g>
   <g id="patch_60">
    <path clip-path="url(#pc017d19570)" d="M 1103.586207 432.56 
L 1142.068966 432.56 
L 1142.068966 469.52 
L 1103.586207 469.52 
z
" style="fill:#fff5ee;opacity:0.8;stroke:#fff5ee;stroke-linejoin:miter;"/>
   </g>
   <g id="matplotlib.axis_1">
    <g id="xtick_1">
     <g id="line2d_1">
      <path clip-path="url(#pc017d19570)" d="M 180 512.64 
L 180 69.12 
" style="fill:none;stroke:#808080;stroke-dasharray:0.8,1.32;stroke-dashoffset:0;stroke-width:0.8;"/>
     </g>
     <g id="line2d_2">
      <defs>
       <path d="M 0 0 
L 0 3.5 
" id="m528e19250d" style="stroke:#000000;stroke-width:0.8;"/>
      </defs>
      <g>
       <use style="stroke:#000000;stroke-width:0.8;" x="180" xlink:href="#m528e19250d" y="512.64"/>
      </g>
     </g>
     <g id="text_1">
      <!-- 0 -->
      <g transform="translate(176.81875 527.238438)scale(0.1 -0.1)">
       <defs>
        <path d="M 31.78125 66.40625 
Q 24.171875 66.40625 20.328125 58.90625 
Q 16.5 51.421875 16.5 36.375 
Q 16.5 21.390625 20.328125 13.890625 
Q 24.171875 6.390625 31.78125 6.390625 
Q 39.453125 6.390625 43.28125 13.890625 
Q 47.125 21.390625 47.125 36.375 
Q 47.125 51.421875 43.28125 58.90625 
Q 39.453125 66.40625 31.78125 66.40625 
z
M 31.78125 74.21875 
Q 44.046875 74.21875 50.515625 64.515625 
Q 56.984375 54.828125 56.984375 36.375 
Q 56.984375 17.96875 50.515625 8.265625 
Q 44.046875 -1.421875 31.78125 -1.421875 
Q 19.53125 -1.421875 13.0625 8.265625 
Q 6.59375 17.96875 6.59375 36.375 
Q 6.59375 54.828125 13.0625 64.515625 
Q 19.53125 74.21875 31.78125 74.21875 
z
" id="DejaVuSans-48"/>
       </defs>
       <use xlink:href="#DejaVuSans-48"/>
      </g>
     </g>
    </g>
    <g id="xtick_2">
     <g id="line2d_3">
      <path clip-path="url(#pc017d19570)" d="M 372.413793 512.64 
L 372.413793 69.12 
" style="fill:none;stroke:#808080;stroke-dasharray:0.8,1.32;stroke-dashoffset:0;stroke-width:0.8;"/>
     </g>
     <g id="line2d_4">
      <g>
       <use style="stroke:#000000;stroke-width:0.8;" x="372.413793" xlink:href="#m528e19250d" y="512.64"/>
      </g>
     </g>
     <g id="text_2">
      <!-- 5 -->
      <g transform="translate(369.232543 527.238438)scale(0.1 -0.1)">
       <defs>
        <path d="M 10.796875 72.90625 
L 49.515625 72.90625 
L 49.515625 64.59375 
L 19.828125 64.59375 
L 19.828125 46.734375 
Q 21.96875 47.46875 24.109375 47.828125 
Q 26.265625 48.1875 28.421875 48.1875 
Q 40.625 48.1875 47.75 41.5 
Q 54.890625 34.8125 54.890625 23.390625 
Q 54.890625 11.625 47.5625 5.09375 
Q 40.234375 -1.421875 26.90625 -1.421875 
Q 22.3125 -1.421875 17.546875 -0.640625 
Q 12.796875 0.140625 7.71875 1.703125 
L 7.71875 11.625 
Q 12.109375 9.234375 16.796875 8.0625 
Q 21.484375 6.890625 26.703125 6.890625 
Q 35.15625 6.890625 40.078125 11.328125 
Q 45.015625 15.765625 45.015625 23.390625 
Q 45.015625 31 40.078125 35.4375 
Q 35.15625 39.890625 26.703125 39.890625 
Q 22.75 39.890625 18.8125 39.015625 
Q 14.890625 38.140625 10.796875 36.28125 
z
" id="DejaVuSans-53"/>
       </defs>
       <use xlink:href="#DejaVuSans-53"/>
      </g>
     </g>
    </g>
    <g id="xtick_3">
     <g id="line2d_5">
      <path clip-path="url(#pc017d19570)" d="M 564.827586 512.64 
L 564.827586 69.12 
" style="fill:none;stroke:#808080;stroke-dasharray:0.8,1.32;stroke-dashoffset:0;stroke-width:0.8;"/>
     </g>
     <g id="line2d_6">
      <g>
       <use style="stroke:#000000;stroke-width:0.8;" x="564.827586" xlink:href="#m528e19250d" y="512.64"/>
      </g>
     </g>
     <g id="text_3">
      <!-- 10 -->
      <g transform="translate(558.465086 527.238438)scale(0.1 -0.1)">
       <defs>
        <path d="M 12.40625 8.296875 
L 28.515625 8.296875 
L 28.515625 63.921875 
L 10.984375 60.40625 
L 10.984375 69.390625 
L 28.421875 72.90625 
L 38.28125 72.90625 
L 38.28125 8.296875 
L 54.390625 8.296875 
L 54.390625 0 
L 12.40625 0 
z
" id="DejaVuSans-49"/>
       </defs>
       <use xlink:href="#DejaVuSans-49"/>
       <use x="63.623047" xlink:href="#DejaVuSans-48"/>
      </g>
     </g>
    </g>
    <g id="xtick_4">
     <g id="line2d_7">
      <path clip-path="url(#pc017d19570)" d="M 757.241379 512.64 
L 757.241379 69.12 
" style="fill:none;stroke:#808080;stroke-dasharray:0.8,1.32;stroke-dashoffset:0;stroke-width:0.8;"/>
     </g>
     <g id="line2d_8">
      <g>
       <use style="stroke:#000000;stroke-width:0.8;" x="757.241379" xlink:href="#m528e19250d" y="512.64"/>
      </g>
     </g>
     <g id="text_4">
      <!-- 15 -->
      <g transform="translate(750.878879 527.238438)scale(0.1 -0.1)">
       <use xlink:href="#DejaVuSans-49"/>
       <use x="63.623047" xlink:href="#DejaVuSans-53"/>
      </g>
     </g>
    </g>
    <g id="xtick_5">
     <g id="line2d_9">
      <path clip-path="url(#pc017d19570)" d="M 949.655172 512.64 
L 949.655172 69.12 
" style="fill:none;stroke:#808080;stroke-dasharray:0.8,1.32;stroke-dashoffset:0;stroke-width:0.8;"/>
     </g>
     <g id="line2d_10">
      <g>
       <use style="stroke:#000000;stroke-width:0.8;" x="949.655172" xlink:href="#m528e19250d" y="512.64"/>
      </g>
     </g>
     <g id="text_5">
      <!-- 20 -->
      <g transform="translate(943.292672 527.238438)scale(0.1 -0.1)">
       <defs>
        <path d="M 19.1875 8.296875 
L 53.609375 8.296875 
L 53.609375 0 
L 7.328125 0 
L 7.328125 8.296875 
Q 12.9375 14.109375 22.625 23.890625 
Q 32.328125 33.6875 34.8125 36.53125 
Q 39.546875 41.84375 41.421875 45.53125 
Q 43.3125 49.21875 43.3125 52.78125 
Q 43.3125 58.59375 39.234375 62.25 
Q 35.15625 65.921875 28.609375 65.921875 
Q 23.96875 65.921875 18.8125 64.3125 
Q 13.671875 62.703125 7.8125 59.421875 
L 7.8125 69.390625 
Q 13.765625 71.78125 18.9375 73 
Q 24.125 74.21875 28.421875 74.21875 
Q 39.75 74.21875 46.484375 68.546875 
Q 53.21875 62.890625 53.21875 53.421875 
Q 53.21875 48.921875 51.53125 44.890625 
Q 49.859375 40.875 45.40625 35.40625 
Q 44.1875 33.984375 37.640625 27.21875 
Q 31.109375 20.453125 19.1875 8.296875 
z
" id="DejaVuSans-50"/>
       </defs>
       <use xlink:href="#DejaVuSans-50"/>
       <use x="63.623047" xlink:href="#DejaVuSans-48"/>
      </g>
     </g>
    </g>
    <g id="xtick_6">
     <g id="line2d_11">
      <path clip-path="url(#pc017d19570)" d="M 1142.068966 512.64 
L 1142.068966 69.12 
" style="fill:none;stroke:#808080;stroke-dasharray:0.8,1.32;stroke-dashoffset:0;stroke-width:0.8;"/>
     </g>
     <g id="line2d_12">
      <g>
       <use style="stroke:#000000;stroke-width:0.8;" x="1142.068966" xlink:href="#m528e19250d" y="512.64"/>
      </g>
     </g>
     <g id="text_6">
      <!-- 25 -->
      <g transform="translate(1135.706466 527.238438)scale(0.1 -0.1)">
       <use xlink:href="#DejaVuSans-50"/>
       <use x="63.623047" xlink:href="#DejaVuSans-53"/>
      </g>
     </g>
    </g>
   </g>
   <g id="matplotlib.axis_2">
    <g id="ytick_1">
     <g id="line2d_13">
      <path clip-path="url(#pc017d19570)" d="M 180 143.04 
L 1296 143.04 
" style="fill:none;stroke:#808080;stroke-dasharray:0.8,1.32;stroke-dashoffset:0;stroke-width:0.8;"/>
     </g>
     <g id="line2d_14">
      <defs>
       <path d="M 0 0 
L -3.5 0 
" id="m9b94a278d1" style="stroke:#000000;stroke-width:0.8;"/>
      </defs>
      <g>
       <use style="stroke:#000000;stroke-width:0.8;" x="180" xlink:href="#m9b94a278d1" y="143.04"/>
      </g>
     </g>
     <g id="text_7">
      <!-- Machine-1 -->
      <g transform="translate(100.43625 148.358906)scale(0.14 -0.14)">
       <defs>
        <path d="M 9.8125 72.90625 
L 24.515625 72.90625 
L 43.109375 23.296875 
L 61.8125 72.90625 
L 76.515625 72.90625 
L 76.515625 0 
L 66.890625 0 
L 66.890625 64.015625 
L 48.09375 14.015625 
L 38.1875 14.015625 
L 19.390625 64.015625 
L 19.390625 0 
L 9.8125 0 
z
" id="DejaVuSans-77"/>
        <path d="M 34.28125 27.484375 
Q 23.390625 27.484375 19.1875 25 
Q 14.984375 22.515625 14.984375 16.5 
Q 14.984375 11.71875 18.140625 8.90625 
Q 21.296875 6.109375 26.703125 6.109375 
Q 34.1875 6.109375 38.703125 11.40625 
Q 43.21875 16.703125 43.21875 25.484375 
L 43.21875 27.484375 
z
M 52.203125 31.203125 
L 52.203125 0 
L 43.21875 0 
L 43.21875 8.296875 
Q 40.140625 3.328125 35.546875 0.953125 
Q 30.953125 -1.421875 24.3125 -1.421875 
Q 15.921875 -1.421875 10.953125 3.296875 
Q 6 8.015625 6 15.921875 
Q 6 25.140625 12.171875 29.828125 
Q 18.359375 34.515625 30.609375 34.515625 
L 43.21875 34.515625 
L 43.21875 35.40625 
Q 43.21875 41.609375 39.140625 45 
Q 35.0625 48.390625 27.6875 48.390625 
Q 23 48.390625 18.546875 47.265625 
Q 14.109375 46.140625 10.015625 43.890625 
L 10.015625 52.203125 
Q 14.9375 54.109375 19.578125 55.046875 
Q 24.21875 56 28.609375 56 
Q 40.484375 56 46.34375 49.84375 
Q 52.203125 43.703125 52.203125 31.203125 
z
" id="DejaVuSans-97"/>
        <path d="M 48.78125 52.59375 
L 48.78125 44.1875 
Q 44.96875 46.296875 41.140625 47.34375 
Q 37.3125 48.390625 33.40625 48.390625 
Q 24.65625 48.390625 19.8125 42.84375 
Q 14.984375 37.3125 14.984375 27.296875 
Q 14.984375 17.28125 19.8125 11.734375 
Q 24.65625 6.203125 33.40625 6.203125 
Q 37.3125 6.203125 41.140625 7.25 
Q 44.96875 8.296875 48.78125 10.40625 
L 48.78125 2.09375 
Q 45.015625 0.34375 40.984375 -0.53125 
Q 36.96875 -1.421875 32.421875 -1.421875 
Q 20.0625 -1.421875 12.78125 6.34375 
Q 5.515625 14.109375 5.515625 27.296875 
Q 5.515625 40.671875 12.859375 48.328125 
Q 20.21875 56 33.015625 56 
Q 37.15625 56 41.109375 55.140625 
Q 45.0625 54.296875 48.78125 52.59375 
z
" id="DejaVuSans-99"/>
        <path d="M 54.890625 33.015625 
L 54.890625 0 
L 45.90625 0 
L 45.90625 32.71875 
Q 45.90625 40.484375 42.875 44.328125 
Q 39.84375 48.1875 33.796875 48.1875 
Q 26.515625 48.1875 22.3125 43.546875 
Q 18.109375 38.921875 18.109375 30.90625 
L 18.109375 0 
L 9.078125 0 
L 9.078125 75.984375 
L 18.109375 75.984375 
L 18.109375 46.1875 
Q 21.34375 51.125 25.703125 53.5625 
Q 30.078125 56 35.796875 56 
Q 45.21875 56 50.046875 50.171875 
Q 54.890625 44.34375 54.890625 33.015625 
z
" id="DejaVuSans-104"/>
        <path d="M 9.421875 54.6875 
L 18.40625 54.6875 
L 18.40625 0 
L 9.421875 0 
z
M 9.421875 75.984375 
L 18.40625 75.984375 
L 18.40625 64.59375 
L 9.421875 64.59375 
z
" id="DejaVuSans-105"/>
        <path d="M 54.890625 33.015625 
L 54.890625 0 
L 45.90625 0 
L 45.90625 32.71875 
Q 45.90625 40.484375 42.875 44.328125 
Q 39.84375 48.1875 33.796875 48.1875 
Q 26.515625 48.1875 22.3125 43.546875 
Q 18.109375 38.921875 18.109375 30.90625 
L 18.109375 0 
L 9.078125 0 
L 9.078125 54.6875 
L 18.109375 54.6875 
L 18.109375 46.1875 
Q 21.34375 51.125 25.703125 53.5625 
Q 30.078125 56 35.796875 56 
Q 45.21875 56 50.046875 50.171875 
Q 54.890625 44.34375 54.890625 33.015625 
z
" id="DejaVuSans-110"/>
        <path d="M 56.203125 29.59375 
L 56.203125 25.203125 
L 14.890625 25.203125 
Q 15.484375 15.921875 20.484375 11.0625 
Q 25.484375 6.203125 34.421875 6.203125 
Q 39.59375 6.203125 44.453125 7.46875 
Q 49.3125 8.734375 54.109375 11.28125 
L 54.109375 2.78125 
Q 49.265625 0.734375 44.1875 -0.34375 
Q 39.109375 -1.421875 33.890625 -1.421875 
Q 20.796875 -1.421875 13.15625 6.1875 
Q 5.515625 13.8125 5.515625 26.8125 
Q 5.515625 40.234375 12.765625 48.109375 
Q 20.015625 56 32.328125 56 
Q 43.359375 56 49.78125 48.890625 
Q 56.203125 41.796875 56.203125 29.59375 
z
M 47.21875 32.234375 
Q 47.125 39.59375 43.09375 43.984375 
Q 39.0625 48.390625 32.421875 48.390625 
Q 24.90625 48.390625 20.390625 44.140625 
Q 15.875 39.890625 15.1875 32.171875 
z
" id="DejaVuSans-101"/>
        <path d="M 4.890625 31.390625 
L 31.203125 31.390625 
L 31.203125 23.390625 
L 4.890625 23.390625 
z
" id="DejaVuSans-45"/>
       </defs>
       <use xlink:href="#DejaVuSans-77"/>
       <use x="86.279297" xlink:href="#DejaVuSans-97"/>
       <use x="147.558594" xlink:href="#DejaVuSans-99"/>
       <use x="202.539062" xlink:href="#DejaVuSans-104"/>
       <use x="265.917969" xlink:href="#DejaVuSans-105"/>
       <use x="293.701172" xlink:href="#DejaVuSans-110"/>
       <use x="357.080078" xlink:href="#DejaVuSans-101"/>
       <use x="418.603516" xlink:href="#DejaVuSans-45"/>
       <use x="454.6875" xlink:href="#DejaVuSans-49"/>
      </g>
     </g>
    </g>
    <g id="ytick_2">
     <g id="line2d_15">
      <path clip-path="url(#pc017d19570)" d="M 180 204.64 
L 1296 204.64 
" style="fill:none;stroke:#808080;stroke-dasharray:0.8,1.32;stroke-dashoffset:0;stroke-width:0.8;"/>
     </g>
     <g id="line2d_16">
      <g>
       <use style="stroke:#000000;stroke-width:0.8;" x="180" xlink:href="#m9b94a278d1" y="204.64"/>
      </g>
     </g>
     <g id="text_8">
      <!-- Machine-2 -->
      <g transform="translate(100.43625 209.958906)scale(0.14 -0.14)">
       <use xlink:href="#DejaVuSans-77"/>
       <use x="86.279297" xlink:href="#DejaVuSans-97"/>
       <use x="147.558594" xlink:href="#DejaVuSans-99"/>
       <use x="202.539062" xlink:href="#DejaVuSans-104"/>
       <use x="265.917969" xlink:href="#DejaVuSans-105"/>
       <use x="293.701172" xlink:href="#DejaVuSans-110"/>
       <use x="357.080078" xlink:href="#DejaVuSans-101"/>
       <use x="418.603516" xlink:href="#DejaVuSans-45"/>
       <use x="454.6875" xlink:href="#DejaVuSans-50"/>
      </g>
     </g>
    </g>
    <g id="ytick_3">
     <g id="line2d_17">
      <path clip-path="url(#pc017d19570)" d="M 180 266.24 
L 1296 266.24 
" style="fill:none;stroke:#808080;stroke-dasharray:0.8,1.32;stroke-dashoffset:0;stroke-width:0.8;"/>
     </g>
     <g id="line2d_18">
      <g>
       <use style="stroke:#000000;stroke-width:0.8;" x="180" xlink:href="#m9b94a278d1" y="266.24"/>
      </g>
     </g>
     <g id="text_9">
      <!-- Machine-3 -->
      <g transform="translate(100.43625 271.558906)scale(0.14 -0.14)">
       <defs>
        <path d="M 40.578125 39.3125 
Q 47.65625 37.796875 51.625 33 
Q 55.609375 28.21875 55.609375 21.1875 
Q 55.609375 10.40625 48.1875 4.484375 
Q 40.765625 -1.421875 27.09375 -1.421875 
Q 22.515625 -1.421875 17.65625 -0.515625 
Q 12.796875 0.390625 7.625 2.203125 
L 7.625 11.71875 
Q 11.71875 9.328125 16.59375 8.109375 
Q 21.484375 6.890625 26.8125 6.890625 
Q 36.078125 6.890625 40.9375 10.546875 
Q 45.796875 14.203125 45.796875 21.1875 
Q 45.796875 27.640625 41.28125 31.265625 
Q 36.765625 34.90625 28.71875 34.90625 
L 20.21875 34.90625 
L 20.21875 43.015625 
L 29.109375 43.015625 
Q 36.375 43.015625 40.234375 45.921875 
Q 44.09375 48.828125 44.09375 54.296875 
Q 44.09375 59.90625 40.109375 62.90625 
Q 36.140625 65.921875 28.71875 65.921875 
Q 24.65625 65.921875 20.015625 65.03125 
Q 15.375 64.15625 9.8125 62.3125 
L 9.8125 71.09375 
Q 15.4375 72.65625 20.34375 73.4375 
Q 25.25 74.21875 29.59375 74.21875 
Q 40.828125 74.21875 47.359375 69.109375 
Q 53.90625 64.015625 53.90625 55.328125 
Q 53.90625 49.265625 50.4375 45.09375 
Q 46.96875 40.921875 40.578125 39.3125 
z
" id="DejaVuSans-51"/>
       </defs>
       <use xlink:href="#DejaVuSans-77"/>
       <use x="86.279297" xlink:href="#DejaVuSans-97"/>
       <use x="147.558594" xlink:href="#DejaVuSans-99"/>
       <use x="202.539062" xlink:href="#DejaVuSans-104"/>
       <use x="265.917969" xlink:href="#DejaVuSans-105"/>
       <use x="293.701172" xlink:href="#DejaVuSans-110"/>
       <use x="357.080078" xlink:href="#DejaVuSans-101"/>
       <use x="418.603516" xlink:href="#DejaVuSans-45"/>
       <use x="454.6875" xlink:href="#DejaVuSans-51"/>
      </g>
     </g>
    </g>
    <g id="ytick_4">
     <g id="line2d_19">
      <path clip-path="url(#pc017d19570)" d="M 180 327.84 
L 1296 327.84 
" style="fill:none;stroke:#808080;stroke-dasharray:0.8,1.32;stroke-dashoffset:0;stroke-width:0.8;"/>
     </g>
     <g id="line2d_20">
      <g>
       <use style="stroke:#000000;stroke-width:0.8;" x="180" xlink:href="#m9b94a278d1" y="327.84"/>
      </g>
     </g>
     <g id="text_10">
      <!-- Machine-4 -->
      <g transform="translate(100.43625 333.158906)scale(0.14 -0.14)">
       <defs>
        <path d="M 37.796875 64.3125 
L 12.890625 25.390625 
L 37.796875 25.390625 
z
M 35.203125 72.90625 
L 47.609375 72.90625 
L 47.609375 25.390625 
L 58.015625 25.390625 
L 58.015625 17.1875 
L 47.609375 17.1875 
L 47.609375 0 
L 37.796875 0 
L 37.796875 17.1875 
L 4.890625 17.1875 
L 4.890625 26.703125 
z
" id="DejaVuSans-52"/>
       </defs>
       <use xlink:href="#DejaVuSans-77"/>
       <use x="86.279297" xlink:href="#DejaVuSans-97"/>
       <use x="147.558594" xlink:href="#DejaVuSans-99"/>
       <use x="202.539062" xlink:href="#DejaVuSans-104"/>
       <use x="265.917969" xlink:href="#DejaVuSans-105"/>
       <use x="293.701172" xlink:href="#DejaVuSans-110"/>
       <use x="357.080078" xlink:href="#DejaVuSans-101"/>
       <use x="418.603516" xlink:href="#DejaVuSans-45"/>
       <use x="454.6875" xlink:href="#DejaVuSans-52"/>
      </g>
     </g>
    </g>
    <g id="ytick_5">
     <g id="line2d_21">
      <path clip-path="url(#pc017d19570)" d="M 180 389.44 
L 1296 389.44 
" style="fill:none;stroke:#808080;stroke-dasharray:0.8,1.32;stroke-dashoffset:0;stroke-width:0.8;"/>
     </g>
     <g id="line2d_22">
      <g>
       <use style="stroke:#000000;stroke-width:0.8;" x="180" xlink:href="#m9b94a278d1" y="389.44"/>
      </g>
     </g>
     <g id="text_11">
      <!-- Machine-5 -->
      <g transform="translate(100.43625 394.758906)scale(0.14 -0.14)">
       <use xlink:href="#DejaVuSans-77"/>
       <use x="86.279297" xlink:href="#DejaVuSans-97"/>
       <use x="147.558594" xlink:href="#DejaVuSans-99"/>
       <use x="202.539062" xlink:href="#DejaVuSans-104"/>
       <use x="265.917969" xlink:href="#DejaVuSans-105"/>
       <use x="293.701172" xlink:href="#DejaVuSans-110"/>
       <use x="357.080078" xlink:href="#DejaVuSans-101"/>
       <use x="418.603516" xlink:href="#DejaVuSans-45"/>
       <use x="454.6875" xlink:href="#DejaVuSans-53"/>
      </g>
     </g>
    </g>
    <g id="ytick_6">
     <g id="line2d_23">
      <path clip-path="url(#pc017d19570)" d="M 180 451.04 
L 1296 451.04 
" style="fill:none;stroke:#808080;stroke-dasharray:0.8,1.32;stroke-dashoffset:0;stroke-width:0.8;"/>
     </g>
     <g id="line2d_24">
      <g>
       <use style="stroke:#000000;stroke-width:0.8;" x="180" xlink:href="#m9b94a278d1" y="451.04"/>
      </g>
     </g>
     <g id="text_12">
      <!-- Machine-6 -->
      <g transform="translate(100.43625 456.358906)scale(0.14 -0.14)">
       <defs>
        <path d="M 33.015625 40.375 
Q 26.375 40.375 22.484375 35.828125 
Q 18.609375 31.296875 18.609375 23.390625 
Q 18.609375 15.53125 22.484375 10.953125 
Q 26.375 6.390625 33.015625 6.390625 
Q 39.65625 6.390625 43.53125 10.953125 
Q 47.40625 15.53125 47.40625 23.390625 
Q 47.40625 31.296875 43.53125 35.828125 
Q 39.65625 40.375 33.015625 40.375 
z
M 52.59375 71.296875 
L 52.59375 62.3125 
Q 48.875 64.0625 45.09375 64.984375 
Q 41.3125 65.921875 37.59375 65.921875 
Q 27.828125 65.921875 22.671875 59.328125 
Q 17.53125 52.734375 16.796875 39.40625 
Q 19.671875 43.65625 24.015625 45.921875 
Q 28.375 48.1875 33.59375 48.1875 
Q 44.578125 48.1875 50.953125 41.515625 
Q 57.328125 34.859375 57.328125 23.390625 
Q 57.328125 12.15625 50.6875 5.359375 
Q 44.046875 -1.421875 33.015625 -1.421875 
Q 20.359375 -1.421875 13.671875 8.265625 
Q 6.984375 17.96875 6.984375 36.375 
Q 6.984375 53.65625 15.1875 63.9375 
Q 23.390625 74.21875 37.203125 74.21875 
Q 40.921875 74.21875 44.703125 73.484375 
Q 48.484375 72.75 52.59375 71.296875 
z
" id="DejaVuSans-54"/>
       </defs>
       <use xlink:href="#DejaVuSans-77"/>
       <use x="86.279297" xlink:href="#DejaVuSans-97"/>
       <use x="147.558594" xlink:href="#DejaVuSans-99"/>
       <use x="202.539062" xlink:href="#DejaVuSans-104"/>
       <use x="265.917969" xlink:href="#DejaVuSans-105"/>
       <use x="293.701172" xlink:href="#DejaVuSans-110"/>
       <use x="357.080078" xlink:href="#DejaVuSans-101"/>
       <use x="418.603516" xlink:href="#DejaVuSans-45"/>
       <use x="454.6875" xlink:href="#DejaVuSans-54"/>
      </g>
     </g>
    </g>
   </g>
   <g id="patch_61">
    <path d="M 180 512.64 
L 180 69.12 
" style="fill:none;stroke:#000000;stroke-linecap:square;stroke-linejoin:miter;stroke-width:0.8;"/>
   </g>
   <g id="patch_62">
    <path d="M 1296 512.64 
L 1296 69.12 
" style="fill:none;stroke:#000000;stroke-linecap:square;stroke-linejoin:miter;stroke-width:0.8;"/>
   </g>
   <g id="patch_63">
    <path d="M 180 512.64 
L 1296 512.64 
" style="fill:none;stroke:#000000;stroke-linecap:square;stroke-linejoin:miter;stroke-width:0.8;"/>
   </g>
   <g id="patch_64">
    <path d="M 180 69.12 
L 1296 69.12 
" style="fill:none;stroke:#000000;stroke-linecap:square;stroke-linejoin:miter;stroke-width:0.8;"/>
   </g>
   <g id="text_13">
    <g clip-path="url(#pc017d19570)">
     <!-- OP_0-1 -->
     <g transform="translate(218.2757 145.572031)scale(0.1 -0.1)">
      <defs>
       <path d="M 42.484375 60.59375 
Q 33.890625 60.59375 29.15625 54.25 
Q 24.421875 47.90625 24.421875 36.375 
Q 24.421875 24.90625 29.15625 18.546875 
Q 33.890625 12.203125 42.484375 12.203125 
Q 51.125 12.203125 55.859375 18.546875 
Q 60.59375 24.90625 60.59375 36.375 
Q 60.59375 47.90625 55.859375 54.25 
Q 51.125 60.59375 42.484375 60.59375 
z
M 42.484375 74.21875 
Q 60.0625 74.21875 70.015625 64.15625 
Q 79.984375 54.109375 79.984375 36.375 
Q 79.984375 18.703125 70.015625 8.640625 
Q 60.0625 -1.421875 42.484375 -1.421875 
Q 24.953125 -1.421875 14.96875 8.640625 
Q 4.984375 18.703125 4.984375 36.375 
Q 4.984375 54.109375 14.96875 64.15625 
Q 24.953125 74.21875 42.484375 74.21875 
z
" id="DejaVuSans-Bold-79"/>
       <path d="M 9.1875 72.90625 
L 40.375 72.90625 
Q 54.296875 72.90625 61.734375 66.71875 
Q 69.1875 60.546875 69.1875 49.125 
Q 69.1875 37.640625 61.734375 31.46875 
Q 54.296875 25.296875 40.375 25.296875 
L 27.984375 25.296875 
L 27.984375 0 
L 9.1875 0 
z
M 27.984375 59.28125 
L 27.984375 38.921875 
L 38.375 38.921875 
Q 43.84375 38.921875 46.828125 41.578125 
Q 49.8125 44.234375 49.8125 49.125 
Q 49.8125 54 46.828125 56.640625 
Q 43.84375 59.28125 38.375 59.28125 
z
" id="DejaVuSans-Bold-80"/>
       <path d="M 50 -14.3125 
L 50 -23.578125 
L 0 -23.578125 
L 0 -14.3125 
z
" id="DejaVuSans-Bold-95"/>
       <path d="M 46 36.53125 
Q 46 50.203125 43.4375 55.78125 
Q 40.875 61.375 34.8125 61.375 
Q 28.765625 61.375 26.171875 55.78125 
Q 23.578125 50.203125 23.578125 36.53125 
Q 23.578125 22.703125 26.171875 17.03125 
Q 28.765625 11.375 34.8125 11.375 
Q 40.828125 11.375 43.40625 17.03125 
Q 46 22.703125 46 36.53125 
z
M 64.796875 36.375 
Q 64.796875 18.265625 56.984375 8.421875 
Q 49.171875 -1.421875 34.8125 -1.421875 
Q 20.40625 -1.421875 12.59375 8.421875 
Q 4.78125 18.265625 4.78125 36.375 
Q 4.78125 54.546875 12.59375 64.375 
Q 20.40625 74.21875 34.8125 74.21875 
Q 49.171875 74.21875 56.984375 64.375 
Q 64.796875 54.546875 64.796875 36.375 
z
" id="DejaVuSans-Bold-48"/>
       <path d="M 5.421875 35.890625 
L 36.078125 35.890625 
L 36.078125 21.6875 
L 5.421875 21.6875 
z
" id="DejaVuSans-Bold-45"/>
       <path d="M 11.71875 12.984375 
L 28.328125 12.984375 
L 28.328125 60.109375 
L 11.28125 56.59375 
L 11.28125 69.390625 
L 28.21875 72.90625 
L 46.09375 72.90625 
L 46.09375 12.984375 
L 62.703125 12.984375 
L 62.703125 0 
L 11.71875 0 
z
" id="DejaVuSans-Bold-49"/>
      </defs>
      <use xlink:href="#DejaVuSans-Bold-79"/>
      <use x="85.009766" xlink:href="#DejaVuSans-Bold-80"/>
      <use x="158.300781" xlink:href="#DejaVuSans-Bold-95"/>
      <use x="208.300781" xlink:href="#DejaVuSans-Bold-48"/>
      <use x="277.880859" xlink:href="#DejaVuSans-Bold-45"/>
      <use x="319.384766" xlink:href="#DejaVuSans-Bold-49"/>
     </g>
    </g>
   </g>
   <g id="text_14">
    <g clip-path="url(#pc017d19570)">
     <!-- OP_0-3 -->
     <g transform="translate(526.137769 145.572031)scale(0.1 -0.1)">
      <defs>
       <path d="M 46.578125 39.3125 
Q 53.953125 37.40625 57.78125 32.6875 
Q 61.625 27.984375 61.625 20.703125 
Q 61.625 9.859375 53.3125 4.21875 
Q 45.015625 -1.421875 29.109375 -1.421875 
Q 23.484375 -1.421875 17.84375 -0.515625 
Q 12.203125 0.390625 6.6875 2.203125 
L 6.6875 16.703125 
Q 11.96875 14.0625 17.15625 12.71875 
Q 22.359375 11.375 27.390625 11.375 
Q 34.859375 11.375 38.84375 13.953125 
Q 42.828125 16.546875 42.828125 21.390625 
Q 42.828125 26.375 38.75 28.9375 
Q 34.671875 31.5 26.703125 31.5 
L 19.1875 31.5 
L 19.1875 43.609375 
L 27.09375 43.609375 
Q 34.1875 43.609375 37.640625 45.828125 
Q 41.109375 48.046875 41.109375 52.59375 
Q 41.109375 56.78125 37.734375 59.078125 
Q 34.375 61.375 28.21875 61.375 
Q 23.6875 61.375 19.046875 60.34375 
Q 14.40625 59.328125 9.8125 57.328125 
L 9.8125 71.09375 
Q 15.375 72.65625 20.84375 73.4375 
Q 26.3125 74.21875 31.59375 74.21875 
Q 45.796875 74.21875 52.84375 69.546875 
Q 59.90625 64.890625 59.90625 55.515625 
Q 59.90625 49.125 56.53125 45.046875 
Q 53.171875 40.96875 46.578125 39.3125 
z
" id="DejaVuSans-Bold-51"/>
      </defs>
      <use xlink:href="#DejaVuSans-Bold-79"/>
      <use x="85.009766" xlink:href="#DejaVuSans-Bold-80"/>
      <use x="158.300781" xlink:href="#DejaVuSans-Bold-95"/>
      <use x="208.300781" xlink:href="#DejaVuSans-Bold-48"/>
      <use x="277.880859" xlink:href="#DejaVuSans-Bold-45"/>
      <use x="319.384766" xlink:href="#DejaVuSans-Bold-51"/>
     </g>
    </g>
   </g>
   <g id="text_15">
    <g clip-path="url(#pc017d19570)">
     <!-- OP_9-2 -->
     <g transform="translate(314.482597 145.572031)scale(0.1 -0.1)">
      <defs>
       <path d="M 10.015625 1.609375 
L 10.015625 15.09375 
Q 14.5 12.984375 18.59375 11.9375 
Q 22.703125 10.890625 26.703125 10.890625 
Q 35.109375 10.890625 39.796875 15.546875 
Q 44.484375 20.21875 45.3125 29.390625 
Q 42 26.953125 38.234375 25.734375 
Q 34.46875 24.515625 30.078125 24.515625 
Q 18.890625 24.515625 12.03125 31.03125 
Q 5.171875 37.546875 5.171875 48.1875 
Q 5.171875 59.96875 12.8125 67.046875 
Q 20.453125 74.125 33.296875 74.125 
Q 47.5625 74.125 55.375 64.5 
Q 63.1875 54.890625 63.1875 37.3125 
Q 63.1875 19.234375 54.046875 8.90625 
Q 44.921875 -1.421875 29 -1.421875 
Q 23.875 -1.421875 19.1875 -0.65625 
Q 14.5 0.09375 10.015625 1.609375 
z
M 33.203125 36.71875 
Q 38.140625 36.71875 40.625 39.90625 
Q 43.109375 43.109375 43.109375 49.515625 
Q 43.109375 55.859375 40.625 59.078125 
Q 38.140625 62.3125 33.203125 62.3125 
Q 28.265625 62.3125 25.78125 59.078125 
Q 23.296875 55.859375 23.296875 49.515625 
Q 23.296875 43.109375 25.78125 39.90625 
Q 28.265625 36.71875 33.203125 36.71875 
z
" id="DejaVuSans-Bold-57"/>
       <path d="M 28.8125 13.8125 
L 60.890625 13.8125 
L 60.890625 0 
L 7.90625 0 
L 7.90625 13.8125 
L 34.515625 37.3125 
Q 38.09375 40.53125 39.796875 43.609375 
Q 41.5 46.6875 41.5 50 
Q 41.5 55.125 38.0625 58.25 
Q 34.625 61.375 28.90625 61.375 
Q 24.515625 61.375 19.28125 59.5 
Q 14.0625 57.625 8.109375 53.90625 
L 8.109375 69.921875 
Q 14.453125 72.015625 20.65625 73.109375 
Q 26.859375 74.21875 32.8125 74.21875 
Q 45.90625 74.21875 53.15625 68.453125 
Q 60.40625 62.703125 60.40625 52.390625 
Q 60.40625 46.4375 57.328125 41.28125 
Q 54.25 36.140625 44.390625 27.484375 
z
" id="DejaVuSans-Bold-50"/>
      </defs>
      <use xlink:href="#DejaVuSans-Bold-79"/>
      <use x="85.009766" xlink:href="#DejaVuSans-Bold-80"/>
      <use x="158.300781" xlink:href="#DejaVuSans-Bold-95"/>
      <use x="208.300781" xlink:href="#DejaVuSans-Bold-57"/>
      <use x="277.880859" xlink:href="#DejaVuSans-Bold-45"/>
      <use x="319.384766" xlink:href="#DejaVuSans-Bold-50"/>
     </g>
    </g>
   </g>
   <g id="text_16">
    <g clip-path="url(#pc017d19570)">
     <!-- OP_7-3 -->
     <g transform="translate(468.413631 145.572031)scale(0.1 -0.1)">
      <defs>
       <path d="M 6.6875 72.90625 
L 61.625 72.90625 
L 61.625 62.3125 
L 33.203125 0 
L 14.890625 0 
L 41.796875 59.078125 
L 6.6875 59.078125 
z
" id="DejaVuSans-Bold-55"/>
      </defs>
      <use xlink:href="#DejaVuSans-Bold-79"/>
      <use x="85.009766" xlink:href="#DejaVuSans-Bold-80"/>
      <use x="158.300781" xlink:href="#DejaVuSans-Bold-95"/>
      <use x="208.300781" xlink:href="#DejaVuSans-Bold-55"/>
      <use x="277.880859" xlink:href="#DejaVuSans-Bold-45"/>
      <use x="319.384766" xlink:href="#DejaVuSans-Bold-51"/>
     </g>
    </g>
   </g>
   <g id="text_17">
    <g clip-path="url(#pc017d19570)">
     <!-- OP_2-1 -->
     <g transform="translate(372.206735 145.572031)scale(0.1 -0.1)">
      <use xlink:href="#DejaVuSans-Bold-79"/>
      <use x="85.009766" xlink:href="#DejaVuSans-Bold-80"/>
      <use x="158.300781" xlink:href="#DejaVuSans-Bold-95"/>
      <use x="208.300781" xlink:href="#DejaVuSans-Bold-50"/>
      <use x="277.880859" xlink:href="#DejaVuSans-Bold-45"/>
      <use x="319.384766" xlink:href="#DejaVuSans-Bold-49"/>
     </g>
    </g>
   </g>
   <g id="text_18">
    <g clip-path="url(#pc017d19570)">
     <!-- OP_2-2 -->
     <g transform="translate(583.861907 145.572031)scale(0.1 -0.1)">
      <use xlink:href="#DejaVuSans-Bold-79"/>
      <use x="85.009766" xlink:href="#DejaVuSans-Bold-80"/>
      <use x="158.300781" xlink:href="#DejaVuSans-Bold-95"/>
      <use x="208.300781" xlink:href="#DejaVuSans-Bold-50"/>
      <use x="277.880859" xlink:href="#DejaVuSans-Bold-45"/>
      <use x="319.384766" xlink:href="#DejaVuSans-Bold-50"/>
     </g>
    </g>
   </g>
   <g id="text_19">
    <g clip-path="url(#pc017d19570)">
     <!-- OP_3-4 -->
     <g transform="translate(641.586045 145.572031)scale(0.1 -0.1)">
      <defs>
       <path d="M 36.8125 57.421875 
L 16.21875 26.90625 
L 36.8125 26.90625 
z
M 33.6875 72.90625 
L 54.59375 72.90625 
L 54.59375 26.90625 
L 64.984375 26.90625 
L 64.984375 13.28125 
L 54.59375 13.28125 
L 54.59375 0 
L 36.8125 0 
L 36.8125 13.28125 
L 4.5 13.28125 
L 4.5 29.390625 
z
" id="DejaVuSans-Bold-52"/>
      </defs>
      <use xlink:href="#DejaVuSans-Bold-79"/>
      <use x="85.009766" xlink:href="#DejaVuSans-Bold-80"/>
      <use x="158.300781" xlink:href="#DejaVuSans-Bold-95"/>
      <use x="208.300781" xlink:href="#DejaVuSans-Bold-51"/>
      <use x="277.880859" xlink:href="#DejaVuSans-Bold-45"/>
      <use x="319.384766" xlink:href="#DejaVuSans-Bold-52"/>
     </g>
    </g>
   </g>
   <g id="text_20">
    <g clip-path="url(#pc017d19570)">
     <!-- OP_6-3 -->
     <g transform="translate(814.758459 145.572031)scale(0.1 -0.1)">
      <defs>
       <path d="M 36.1875 35.984375 
Q 31.25 35.984375 28.78125 32.78125 
Q 26.3125 29.59375 26.3125 23.1875 
Q 26.3125 16.796875 28.78125 13.59375 
Q 31.25 10.40625 36.1875 10.40625 
Q 41.15625 10.40625 43.625 13.59375 
Q 46.09375 16.796875 46.09375 23.1875 
Q 46.09375 29.59375 43.625 32.78125 
Q 41.15625 35.984375 36.1875 35.984375 
z
M 59.421875 71 
L 59.421875 57.515625 
Q 54.78125 59.71875 50.671875 60.765625 
Q 46.578125 61.8125 42.671875 61.8125 
Q 34.28125 61.8125 29.59375 57.140625 
Q 24.90625 52.484375 24.125 43.3125 
Q 27.34375 45.703125 31.09375 46.890625 
Q 34.859375 48.09375 39.3125 48.09375 
Q 50.484375 48.09375 57.34375 41.546875 
Q 64.203125 35.015625 64.203125 24.421875 
Q 64.203125 12.703125 56.53125 5.640625 
Q 48.875 -1.421875 35.984375 -1.421875 
Q 21.78125 -1.421875 13.984375 8.171875 
Q 6.203125 17.78125 6.203125 35.40625 
Q 6.203125 53.46875 15.3125 63.796875 
Q 24.421875 74.125 40.28125 74.125 
Q 45.3125 74.125 50.046875 73.34375 
Q 54.78125 72.5625 59.421875 71 
z
" id="DejaVuSans-Bold-54"/>
      </defs>
      <use xlink:href="#DejaVuSans-Bold-79"/>
      <use x="85.009766" xlink:href="#DejaVuSans-Bold-80"/>
      <use x="158.300781" xlink:href="#DejaVuSans-Bold-95"/>
      <use x="208.300781" xlink:href="#DejaVuSans-Bold-54"/>
      <use x="277.880859" xlink:href="#DejaVuSans-Bold-45"/>
      <use x="319.384766" xlink:href="#DejaVuSans-Bold-51"/>
     </g>
    </g>
   </g>
   <g id="text_21">
    <g clip-path="url(#pc017d19570)">
     <!-- OP_5-4 -->
     <g transform="translate(699.310183 145.572031)scale(0.1 -0.1)">
      <defs>
       <path d="M 10.59375 72.90625 
L 57.328125 72.90625 
L 57.328125 59.078125 
L 25.59375 59.078125 
L 25.59375 47.796875 
Q 27.734375 48.390625 29.90625 48.703125 
Q 32.078125 49.03125 34.421875 49.03125 
Q 47.75 49.03125 55.171875 42.359375 
Q 62.59375 35.6875 62.59375 23.78125 
Q 62.59375 11.96875 54.515625 5.265625 
Q 46.4375 -1.421875 32.078125 -1.421875 
Q 25.875 -1.421875 19.796875 -0.21875 
Q 13.71875 0.984375 7.71875 3.421875 
L 7.71875 18.21875 
Q 13.671875 14.796875 19.015625 13.078125 
Q 24.359375 11.375 29.109375 11.375 
Q 35.9375 11.375 39.859375 14.71875 
Q 43.796875 18.0625 43.796875 23.78125 
Q 43.796875 29.546875 39.859375 32.859375 
Q 35.9375 36.1875 29.109375 36.1875 
Q 25.046875 36.1875 20.453125 35.125 
Q 15.875 34.078125 10.59375 31.890625 
z
" id="DejaVuSans-Bold-53"/>
      </defs>
      <use xlink:href="#DejaVuSans-Bold-79"/>
      <use x="85.009766" xlink:href="#DejaVuSans-Bold-80"/>
      <use x="158.300781" xlink:href="#DejaVuSans-Bold-95"/>
      <use x="208.300781" xlink:href="#DejaVuSans-Bold-53"/>
      <use x="277.880859" xlink:href="#DejaVuSans-Bold-45"/>
      <use x="319.384766" xlink:href="#DejaVuSans-Bold-52"/>
     </g>
    </g>
   </g>
   <g id="text_22">
    <g clip-path="url(#pc017d19570)">
     <!-- OP_4-5 -->
     <g transform="translate(949.448114 145.572031)scale(0.1 -0.1)">
      <use xlink:href="#DejaVuSans-Bold-79"/>
      <use x="85.009766" xlink:href="#DejaVuSans-Bold-80"/>
      <use x="158.300781" xlink:href="#DejaVuSans-Bold-95"/>
      <use x="208.300781" xlink:href="#DejaVuSans-Bold-52"/>
      <use x="277.880859" xlink:href="#DejaVuSans-Bold-45"/>
      <use x="319.384766" xlink:href="#DejaVuSans-Bold-53"/>
     </g>
    </g>
   </g>
   <g id="text_23">
    <g clip-path="url(#pc017d19570)">
     <!-- OP_6-4 -->
     <g transform="translate(1064.89639 145.572031)scale(0.1 -0.1)">
      <use xlink:href="#DejaVuSans-Bold-79"/>
      <use x="85.009766" xlink:href="#DejaVuSans-Bold-80"/>
      <use x="158.300781" xlink:href="#DejaVuSans-Bold-95"/>
      <use x="208.300781" xlink:href="#DejaVuSans-Bold-54"/>
      <use x="277.880859" xlink:href="#DejaVuSans-Bold-45"/>
      <use x="319.384766" xlink:href="#DejaVuSans-Bold-52"/>
     </g>
    </g>
   </g>
   <g id="text_24">
    <g clip-path="url(#pc017d19570)">
     <!-- OP_8-1 -->
     <g transform="translate(275.999838 207.172031)scale(0.1 -0.1)">
      <defs>
       <path d="M 34.8125 32.625 
Q 29.546875 32.625 26.703125 29.734375 
Q 23.875 26.859375 23.875 21.484375 
Q 23.875 16.109375 26.703125 13.25 
Q 29.546875 10.40625 34.8125 10.40625 
Q 40.046875 10.40625 42.828125 13.25 
Q 45.609375 16.109375 45.609375 21.484375 
Q 45.609375 26.90625 42.828125 29.765625 
Q 40.046875 32.625 34.8125 32.625 
z
M 21.09375 38.8125 
Q 14.453125 40.828125 11.078125 44.96875 
Q 7.71875 49.125 7.71875 55.328125 
Q 7.71875 64.546875 14.59375 69.375 
Q 21.484375 74.21875 34.8125 74.21875 
Q 48.046875 74.21875 54.921875 69.40625 
Q 61.8125 64.59375 61.8125 55.328125 
Q 61.8125 49.125 58.421875 44.96875 
Q 55.03125 40.828125 48.390625 38.8125 
Q 55.8125 36.765625 59.59375 32.15625 
Q 63.375 27.546875 63.375 20.515625 
Q 63.375 9.671875 56.171875 4.125 
Q 48.96875 -1.421875 34.8125 -1.421875 
Q 20.609375 -1.421875 13.359375 4.125 
Q 6.109375 9.671875 6.109375 20.515625 
Q 6.109375 27.546875 9.890625 32.15625 
Q 13.671875 36.765625 21.09375 38.8125 
z
M 25.484375 53.421875 
Q 25.484375 49.078125 27.90625 46.734375 
Q 30.328125 44.390625 34.8125 44.390625 
Q 39.203125 44.390625 41.59375 46.734375 
Q 44 49.078125 44 53.421875 
Q 44 57.765625 41.59375 60.078125 
Q 39.203125 62.40625 34.8125 62.40625 
Q 30.328125 62.40625 27.90625 60.0625 
Q 25.484375 57.71875 25.484375 53.421875 
z
" id="DejaVuSans-Bold-56"/>
      </defs>
      <use xlink:href="#DejaVuSans-Bold-79"/>
      <use x="85.009766" xlink:href="#DejaVuSans-Bold-80"/>
      <use x="158.300781" xlink:href="#DejaVuSans-Bold-95"/>
      <use x="208.300781" xlink:href="#DejaVuSans-Bold-56"/>
      <use x="277.880859" xlink:href="#DejaVuSans-Bold-45"/>
      <use x="319.384766" xlink:href="#DejaVuSans-Bold-49"/>
     </g>
    </g>
   </g>
   <g id="text_25">
    <g clip-path="url(#pc017d19570)">
     <!-- OP_3-3 -->
     <g transform="translate(506.89639 207.172031)scale(0.1 -0.1)">
      <use xlink:href="#DejaVuSans-Bold-79"/>
      <use x="85.009766" xlink:href="#DejaVuSans-Bold-80"/>
      <use x="158.300781" xlink:href="#DejaVuSans-Bold-95"/>
      <use x="208.300781" xlink:href="#DejaVuSans-Bold-51"/>
      <use x="277.880859" xlink:href="#DejaVuSans-Bold-45"/>
      <use x="319.384766" xlink:href="#DejaVuSans-Bold-51"/>
     </g>
    </g>
   </g>
   <g id="text_26">
    <g clip-path="url(#pc017d19570)">
     <!-- OP_0-4 -->
     <g transform="translate(737.792942 207.172031)scale(0.1 -0.1)">
      <use xlink:href="#DejaVuSans-Bold-79"/>
      <use x="85.009766" xlink:href="#DejaVuSans-Bold-80"/>
      <use x="158.300781" xlink:href="#DejaVuSans-Bold-95"/>
      <use x="208.300781" xlink:href="#DejaVuSans-Bold-48"/>
      <use x="277.880859" xlink:href="#DejaVuSans-Bold-45"/>
      <use x="319.384766" xlink:href="#DejaVuSans-Bold-52"/>
     </g>
    </g>
   </g>
   <g id="text_27">
    <g clip-path="url(#pc017d19570)">
     <!-- OP_2-3 -->
     <g transform="translate(872.482597 207.172031)scale(0.1 -0.1)">
      <use xlink:href="#DejaVuSans-Bold-79"/>
      <use x="85.009766" xlink:href="#DejaVuSans-Bold-80"/>
      <use x="158.300781" xlink:href="#DejaVuSans-Bold-95"/>
      <use x="208.300781" xlink:href="#DejaVuSans-Bold-50"/>
      <use x="277.880859" xlink:href="#DejaVuSans-Bold-45"/>
      <use x="319.384766" xlink:href="#DejaVuSans-Bold-51"/>
     </g>
    </g>
   </g>
   <g id="text_28">
    <g clip-path="url(#pc017d19570)">
     <!-- OP_5-5 -->
     <g transform="translate(1007.172252 207.172031)scale(0.1 -0.1)">
      <use xlink:href="#DejaVuSans-Bold-79"/>
      <use x="85.009766" xlink:href="#DejaVuSans-Bold-80"/>
      <use x="158.300781" xlink:href="#DejaVuSans-Bold-95"/>
      <use x="208.300781" xlink:href="#DejaVuSans-Bold-53"/>
      <use x="277.880859" xlink:href="#DejaVuSans-Bold-45"/>
      <use x="319.384766" xlink:href="#DejaVuSans-Bold-53"/>
     </g>
    </g>
   </g>
   <g id="text_29">
    <g clip-path="url(#pc017d19570)">
     <!-- OP_3-5 -->
     <g transform="translate(1180.344666 207.172031)scale(0.1 -0.1)">
      <use xlink:href="#DejaVuSans-Bold-79"/>
      <use x="85.009766" xlink:href="#DejaVuSans-Bold-80"/>
      <use x="158.300781" xlink:href="#DejaVuSans-Bold-95"/>
      <use x="208.300781" xlink:href="#DejaVuSans-Bold-51"/>
      <use x="277.880859" xlink:href="#DejaVuSans-Bold-45"/>
      <use x="319.384766" xlink:href="#DejaVuSans-Bold-53"/>
     </g>
    </g>
   </g>
   <g id="text_30">
    <g clip-path="url(#pc017d19570)">
     <!-- OP_0-6 -->
     <g transform="translate(1257.310183 207.172031)scale(0.1 -0.1)">
      <use xlink:href="#DejaVuSans-Bold-79"/>
      <use x="85.009766" xlink:href="#DejaVuSans-Bold-80"/>
      <use x="158.300781" xlink:href="#DejaVuSans-Bold-95"/>
      <use x="208.300781" xlink:href="#DejaVuSans-Bold-48"/>
      <use x="277.880859" xlink:href="#DejaVuSans-Bold-45"/>
      <use x="319.384766" xlink:href="#DejaVuSans-Bold-54"/>
     </g>
    </g>
   </g>
   <g id="text_31">
    <g clip-path="url(#pc017d19570)">
     <!-- OP_7-1 -->
     <g transform="translate(218.2757 268.772031)scale(0.1 -0.1)">
      <use xlink:href="#DejaVuSans-Bold-79"/>
      <use x="85.009766" xlink:href="#DejaVuSans-Bold-80"/>
      <use x="158.300781" xlink:href="#DejaVuSans-Bold-95"/>
      <use x="208.300781" xlink:href="#DejaVuSans-Bold-55"/>
      <use x="277.880859" xlink:href="#DejaVuSans-Bold-45"/>
      <use x="319.384766" xlink:href="#DejaVuSans-Bold-49"/>
     </g>
    </g>
   </g>
   <g id="text_32">
    <g clip-path="url(#pc017d19570)">
     <!-- OP_5-2 -->
     <g transform="translate(352.965356 268.772031)scale(0.1 -0.1)">
      <use xlink:href="#DejaVuSans-Bold-79"/>
      <use x="85.009766" xlink:href="#DejaVuSans-Bold-80"/>
      <use x="158.300781" xlink:href="#DejaVuSans-Bold-95"/>
      <use x="208.300781" xlink:href="#DejaVuSans-Bold-53"/>
      <use x="277.880859" xlink:href="#DejaVuSans-Bold-45"/>
      <use x="319.384766" xlink:href="#DejaVuSans-Bold-50"/>
     </g>
    </g>
   </g>
   <g id="text_33">
    <g clip-path="url(#pc017d19570)">
     <!-- OP_8-2 -->
     <g transform="translate(506.89639 268.772031)scale(0.1 -0.1)">
      <use xlink:href="#DejaVuSans-Bold-79"/>
      <use x="85.009766" xlink:href="#DejaVuSans-Bold-80"/>
      <use x="158.300781" xlink:href="#DejaVuSans-Bold-95"/>
      <use x="208.300781" xlink:href="#DejaVuSans-Bold-56"/>
      <use x="277.880859" xlink:href="#DejaVuSans-Bold-45"/>
      <use x="319.384766" xlink:href="#DejaVuSans-Bold-50"/>
     </g>
    </g>
   </g>
   <g id="text_34">
    <g clip-path="url(#pc017d19570)">
     <!-- OP_9-4 -->
     <g transform="translate(641.586045 268.772031)scale(0.1 -0.1)">
      <use xlink:href="#DejaVuSans-Bold-79"/>
      <use x="85.009766" xlink:href="#DejaVuSans-Bold-80"/>
      <use x="158.300781" xlink:href="#DejaVuSans-Bold-95"/>
      <use x="208.300781" xlink:href="#DejaVuSans-Bold-57"/>
      <use x="277.880859" xlink:href="#DejaVuSans-Bold-45"/>
      <use x="319.384766" xlink:href="#DejaVuSans-Bold-52"/>
     </g>
    </g>
   </g>
   <g id="text_35">
    <g clip-path="url(#pc017d19570)">
     <!-- OP_1-4 -->
     <g transform="translate(757.034321 268.772031)scale(0.1 -0.1)">
      <use xlink:href="#DejaVuSans-Bold-79"/>
      <use x="85.009766" xlink:href="#DejaVuSans-Bold-80"/>
      <use x="158.300781" xlink:href="#DejaVuSans-Bold-95"/>
      <use x="208.300781" xlink:href="#DejaVuSans-Bold-49"/>
      <use x="277.880859" xlink:href="#DejaVuSans-Bold-45"/>
      <use x="319.384766" xlink:href="#DejaVuSans-Bold-52"/>
     </g>
    </g>
   </g>
   <g id="text_36">
    <g clip-path="url(#pc017d19570)">
     <!-- OP_1-5 -->
     <g transform="translate(853.241218 268.772031)scale(0.1 -0.1)">
      <use xlink:href="#DejaVuSans-Bold-79"/>
      <use x="85.009766" xlink:href="#DejaVuSans-Bold-80"/>
      <use x="158.300781" xlink:href="#DejaVuSans-Bold-95"/>
      <use x="208.300781" xlink:href="#DejaVuSans-Bold-49"/>
      <use x="277.880859" xlink:href="#DejaVuSans-Bold-45"/>
      <use x="319.384766" xlink:href="#DejaVuSans-Bold-53"/>
     </g>
    </g>
   </g>
   <g id="text_37">
    <g clip-path="url(#pc017d19570)">
     <!-- OP_4-6 -->
     <g transform="translate(1064.89639 268.772031)scale(0.1 -0.1)">
      <use xlink:href="#DejaVuSans-Bold-79"/>
      <use x="85.009766" xlink:href="#DejaVuSans-Bold-80"/>
      <use x="158.300781" xlink:href="#DejaVuSans-Bold-95"/>
      <use x="208.300781" xlink:href="#DejaVuSans-Bold-52"/>
      <use x="277.880859" xlink:href="#DejaVuSans-Bold-45"/>
      <use x="319.384766" xlink:href="#DejaVuSans-Bold-54"/>
     </g>
    </g>
   </g>
   <g id="text_38">
    <g clip-path="url(#pc017d19570)">
     <!-- OP_8-5 -->
     <g transform="translate(1180.344666 268.772031)scale(0.1 -0.1)">
      <use xlink:href="#DejaVuSans-Bold-79"/>
      <use x="85.009766" xlink:href="#DejaVuSans-Bold-80"/>
      <use x="158.300781" xlink:href="#DejaVuSans-Bold-95"/>
      <use x="208.300781" xlink:href="#DejaVuSans-Bold-56"/>
      <use x="277.880859" xlink:href="#DejaVuSans-Bold-45"/>
      <use x="319.384766" xlink:href="#DejaVuSans-Bold-53"/>
     </g>
    </g>
   </g>
   <g id="text_39">
    <g clip-path="url(#pc017d19570)">
     <!-- OP_9-1 -->
     <g transform="translate(218.2757 330.372031)scale(0.1 -0.1)">
      <use xlink:href="#DejaVuSans-Bold-79"/>
      <use x="85.009766" xlink:href="#DejaVuSans-Bold-80"/>
      <use x="158.300781" xlink:href="#DejaVuSans-Bold-95"/>
      <use x="208.300781" xlink:href="#DejaVuSans-Bold-57"/>
      <use x="277.880859" xlink:href="#DejaVuSans-Bold-45"/>
      <use x="319.384766" xlink:href="#DejaVuSans-Bold-49"/>
     </g>
    </g>
   </g>
   <g id="text_40">
    <g clip-path="url(#pc017d19570)">
     <!-- OP_3-2 -->
     <g transform="translate(314.482597 330.372031)scale(0.1 -0.1)">
      <use xlink:href="#DejaVuSans-Bold-79"/>
      <use x="85.009766" xlink:href="#DejaVuSans-Bold-80"/>
      <use x="158.300781" xlink:href="#DejaVuSans-Bold-95"/>
      <use x="208.300781" xlink:href="#DejaVuSans-Bold-51"/>
      <use x="277.880859" xlink:href="#DejaVuSans-Bold-45"/>
      <use x="319.384766" xlink:href="#DejaVuSans-Bold-50"/>
     </g>
    </g>
   </g>
   <g id="text_41">
    <g clip-path="url(#pc017d19570)">
     <!-- OP_6-1 -->
     <g transform="translate(372.206735 330.372031)scale(0.1 -0.1)">
      <use xlink:href="#DejaVuSans-Bold-79"/>
      <use x="85.009766" xlink:href="#DejaVuSans-Bold-80"/>
      <use x="158.300781" xlink:href="#DejaVuSans-Bold-95"/>
      <use x="208.300781" xlink:href="#DejaVuSans-Bold-54"/>
      <use x="277.880859" xlink:href="#DejaVuSans-Bold-45"/>
      <use x="319.384766" xlink:href="#DejaVuSans-Bold-49"/>
     </g>
    </g>
   </g>
   <g id="text_42">
    <g clip-path="url(#pc017d19570)">
     <!-- OP_4-2 -->
     <g transform="translate(487.655011 330.372031)scale(0.1 -0.1)">
      <use xlink:href="#DejaVuSans-Bold-79"/>
      <use x="85.009766" xlink:href="#DejaVuSans-Bold-80"/>
      <use x="158.300781" xlink:href="#DejaVuSans-Bold-95"/>
      <use x="208.300781" xlink:href="#DejaVuSans-Bold-52"/>
      <use x="277.880859" xlink:href="#DejaVuSans-Bold-45"/>
      <use x="319.384766" xlink:href="#DejaVuSans-Bold-50"/>
     </g>
    </g>
   </g>
   <g id="text_43">
    <g clip-path="url(#pc017d19570)">
     <!-- OP_4-3 -->
     <g transform="translate(641.586045 330.372031)scale(0.1 -0.1)">
      <use xlink:href="#DejaVuSans-Bold-79"/>
      <use x="85.009766" xlink:href="#DejaVuSans-Bold-80"/>
      <use x="158.300781" xlink:href="#DejaVuSans-Bold-95"/>
      <use x="208.300781" xlink:href="#DejaVuSans-Bold-52"/>
      <use x="277.880859" xlink:href="#DejaVuSans-Bold-45"/>
      <use x="319.384766" xlink:href="#DejaVuSans-Bold-51"/>
     </g>
    </g>
   </g>
   <g id="text_44">
    <g clip-path="url(#pc017d19570)">
     <!-- OP_8-3 -->
     <g transform="translate(737.792942 330.372031)scale(0.1 -0.1)">
      <use xlink:href="#DejaVuSans-Bold-79"/>
      <use x="85.009766" xlink:href="#DejaVuSans-Bold-80"/>
      <use x="158.300781" xlink:href="#DejaVuSans-Bold-95"/>
      <use x="208.300781" xlink:href="#DejaVuSans-Bold-56"/>
      <use x="277.880859" xlink:href="#DejaVuSans-Bold-45"/>
      <use x="319.384766" xlink:href="#DejaVuSans-Bold-51"/>
     </g>
    </g>
   </g>
   <g id="text_45">
    <g clip-path="url(#pc017d19570)">
     <!-- OP_2-5 -->
     <g transform="translate(987.930873 330.372031)scale(0.1 -0.1)">
      <use xlink:href="#DejaVuSans-Bold-79"/>
      <use x="85.009766" xlink:href="#DejaVuSans-Bold-80"/>
      <use x="158.300781" xlink:href="#DejaVuSans-Bold-95"/>
      <use x="208.300781" xlink:href="#DejaVuSans-Bold-50"/>
      <use x="277.880859" xlink:href="#DejaVuSans-Bold-45"/>
      <use x="319.384766" xlink:href="#DejaVuSans-Bold-53"/>
     </g>
    </g>
   </g>
   <g id="text_46">
    <g clip-path="url(#pc017d19570)">
     <!-- OP_3-6 -->
     <g transform="translate(1257.310183 330.372031)scale(0.1 -0.1)">
      <use xlink:href="#DejaVuSans-Bold-79"/>
      <use x="85.009766" xlink:href="#DejaVuSans-Bold-80"/>
      <use x="158.300781" xlink:href="#DejaVuSans-Bold-95"/>
      <use x="208.300781" xlink:href="#DejaVuSans-Bold-51"/>
      <use x="277.880859" xlink:href="#DejaVuSans-Bold-45"/>
      <use x="319.384766" xlink:href="#DejaVuSans-Bold-54"/>
     </g>
    </g>
   </g>
   <g id="text_47">
    <g clip-path="url(#pc017d19570)">
     <!-- OP_7-6 -->
     <g transform="translate(891.723976 330.372031)scale(0.1 -0.1)">
      <use xlink:href="#DejaVuSans-Bold-79"/>
      <use x="85.009766" xlink:href="#DejaVuSans-Bold-80"/>
      <use x="158.300781" xlink:href="#DejaVuSans-Bold-95"/>
      <use x="208.300781" xlink:href="#DejaVuSans-Bold-55"/>
      <use x="277.880859" xlink:href="#DejaVuSans-Bold-45"/>
      <use x="319.384766" xlink:href="#DejaVuSans-Bold-54"/>
     </g>
    </g>
   </g>
   <g id="text_48">
    <g clip-path="url(#pc017d19570)">
     <!-- OP_1-6 -->
     <g transform="translate(1103.379149 330.372031)scale(0.1 -0.1)">
      <use xlink:href="#DejaVuSans-Bold-79"/>
      <use x="85.009766" xlink:href="#DejaVuSans-Bold-80"/>
      <use x="158.300781" xlink:href="#DejaVuSans-Bold-95"/>
      <use x="208.300781" xlink:href="#DejaVuSans-Bold-49"/>
      <use x="277.880859" xlink:href="#DejaVuSans-Bold-45"/>
      <use x="319.384766" xlink:href="#DejaVuSans-Bold-54"/>
     </g>
    </g>
   </g>
   <g id="text_49">
    <g clip-path="url(#pc017d19570)">
     <!-- OP_3-1 -->
     <g transform="translate(199.034321 391.972031)scale(0.1 -0.1)">
      <use xlink:href="#DejaVuSans-Bold-79"/>
      <use x="85.009766" xlink:href="#DejaVuSans-Bold-80"/>
      <use x="158.300781" xlink:href="#DejaVuSans-Bold-95"/>
      <use x="208.300781" xlink:href="#DejaVuSans-Bold-51"/>
      <use x="277.880859" xlink:href="#DejaVuSans-Bold-45"/>
      <use x="319.384766" xlink:href="#DejaVuSans-Bold-49"/>
     </g>
    </g>
   </g>
   <g id="text_50">
    <g clip-path="url(#pc017d19570)">
     <!-- OP_4-1 -->
     <g transform="translate(295.241218 391.972031)scale(0.1 -0.1)">
      <use xlink:href="#DejaVuSans-Bold-79"/>
      <use x="85.009766" xlink:href="#DejaVuSans-Bold-80"/>
      <use x="158.300781" xlink:href="#DejaVuSans-Bold-95"/>
      <use x="208.300781" xlink:href="#DejaVuSans-Bold-52"/>
      <use x="277.880859" xlink:href="#DejaVuSans-Bold-45"/>
      <use x="319.384766" xlink:href="#DejaVuSans-Bold-49"/>
     </g>
    </g>
   </g>
   <g id="text_51">
    <g clip-path="url(#pc017d19570)">
     <!-- OP_7-2 -->
     <g transform="translate(391.448114 391.972031)scale(0.1 -0.1)">
      <use xlink:href="#DejaVuSans-Bold-79"/>
      <use x="85.009766" xlink:href="#DejaVuSans-Bold-80"/>
      <use x="158.300781" xlink:href="#DejaVuSans-Bold-95"/>
      <use x="208.300781" xlink:href="#DejaVuSans-Bold-55"/>
      <use x="277.880859" xlink:href="#DejaVuSans-Bold-45"/>
      <use x="319.384766" xlink:href="#DejaVuSans-Bold-50"/>
     </g>
    </g>
   </g>
   <g id="text_52">
    <g clip-path="url(#pc017d19570)">
     <!-- OP_9-3 -->
     <g transform="translate(487.655011 391.972031)scale(0.1 -0.1)">
      <use xlink:href="#DejaVuSans-Bold-79"/>
      <use x="85.009766" xlink:href="#DejaVuSans-Bold-80"/>
      <use x="158.300781" xlink:href="#DejaVuSans-Bold-95"/>
      <use x="208.300781" xlink:href="#DejaVuSans-Bold-57"/>
      <use x="277.880859" xlink:href="#DejaVuSans-Bold-45"/>
      <use x="319.384766" xlink:href="#DejaVuSans-Bold-51"/>
     </g>
    </g>
   </g>
   <g id="text_53">
    <g clip-path="url(#pc017d19570)">
     <!-- OP_1-3 -->
     <g transform="translate(660.827425 391.972031)scale(0.1 -0.1)">
      <use xlink:href="#DejaVuSans-Bold-79"/>
      <use x="85.009766" xlink:href="#DejaVuSans-Bold-80"/>
      <use x="158.300781" xlink:href="#DejaVuSans-Bold-95"/>
      <use x="208.300781" xlink:href="#DejaVuSans-Bold-49"/>
      <use x="277.880859" xlink:href="#DejaVuSans-Bold-45"/>
      <use x="319.384766" xlink:href="#DejaVuSans-Bold-51"/>
     </g>
    </g>
   </g>
   <g id="text_54">
    <g clip-path="url(#pc017d19570)">
     <!-- OP_5-3 -->
     <g transform="translate(583.861907 391.972031)scale(0.1 -0.1)">
      <use xlink:href="#DejaVuSans-Bold-79"/>
      <use x="85.009766" xlink:href="#DejaVuSans-Bold-80"/>
      <use x="158.300781" xlink:href="#DejaVuSans-Bold-95"/>
      <use x="208.300781" xlink:href="#DejaVuSans-Bold-53"/>
      <use x="277.880859" xlink:href="#DejaVuSans-Bold-45"/>
      <use x="319.384766" xlink:href="#DejaVuSans-Bold-51"/>
     </g>
    </g>
   </g>
   <g id="text_55">
    <g clip-path="url(#pc017d19570)">
     <!-- OP_6-2 -->
     <g transform="translate(737.792942 391.972031)scale(0.1 -0.1)">
      <use xlink:href="#DejaVuSans-Bold-79"/>
      <use x="85.009766" xlink:href="#DejaVuSans-Bold-80"/>
      <use x="158.300781" xlink:href="#DejaVuSans-Bold-95"/>
      <use x="208.300781" xlink:href="#DejaVuSans-Bold-54"/>
      <use x="277.880859" xlink:href="#DejaVuSans-Bold-45"/>
      <use x="319.384766" xlink:href="#DejaVuSans-Bold-50"/>
     </g>
    </g>
   </g>
   <g id="text_56">
    <g clip-path="url(#pc017d19570)">
     <!-- OP_4-4 -->
     <g transform="translate(833.999838 391.972031)scale(0.1 -0.1)">
      <use xlink:href="#DejaVuSans-Bold-79"/>
      <use x="85.009766" xlink:href="#DejaVuSans-Bold-80"/>
      <use x="158.300781" xlink:href="#DejaVuSans-Bold-95"/>
      <use x="208.300781" xlink:href="#DejaVuSans-Bold-52"/>
      <use x="277.880859" xlink:href="#DejaVuSans-Bold-45"/>
      <use x="319.384766" xlink:href="#DejaVuSans-Bold-52"/>
     </g>
    </g>
   </g>
   <g id="text_57">
    <g clip-path="url(#pc017d19570)">
     <!-- OP_2-4 -->
     <g transform="translate(930.206735 391.972031)scale(0.1 -0.1)">
      <use xlink:href="#DejaVuSans-Bold-79"/>
      <use x="85.009766" xlink:href="#DejaVuSans-Bold-80"/>
      <use x="158.300781" xlink:href="#DejaVuSans-Bold-95"/>
      <use x="208.300781" xlink:href="#DejaVuSans-Bold-50"/>
      <use x="277.880859" xlink:href="#DejaVuSans-Bold-45"/>
      <use x="319.384766" xlink:href="#DejaVuSans-Bold-52"/>
     </g>
    </g>
   </g>
   <g id="text_58">
    <g clip-path="url(#pc017d19570)">
     <!-- OP_8-4 -->
     <g transform="translate(1045.655011 391.972031)scale(0.1 -0.1)">
      <use xlink:href="#DejaVuSans-Bold-79"/>
      <use x="85.009766" xlink:href="#DejaVuSans-Bold-80"/>
      <use x="158.300781" xlink:href="#DejaVuSans-Bold-95"/>
      <use x="208.300781" xlink:href="#DejaVuSans-Bold-56"/>
      <use x="277.880859" xlink:href="#DejaVuSans-Bold-45"/>
      <use x="319.384766" xlink:href="#DejaVuSans-Bold-52"/>
     </g>
    </g>
   </g>
   <g id="text_59">
    <g clip-path="url(#pc017d19570)">
     <!-- OP_2-6 -->
     <g transform="translate(1180.344666 391.972031)scale(0.1 -0.1)">
      <use xlink:href="#DejaVuSans-Bold-79"/>
      <use x="85.009766" xlink:href="#DejaVuSans-Bold-80"/>
      <use x="158.300781" xlink:href="#DejaVuSans-Bold-95"/>
      <use x="208.300781" xlink:href="#DejaVuSans-Bold-50"/>
      <use x="277.880859" xlink:href="#DejaVuSans-Bold-45"/>
      <use x="319.384766" xlink:href="#DejaVuSans-Bold-54"/>
     </g>
    </g>
   </g>
   <g id="text_60">
    <g clip-path="url(#pc017d19570)">
     <!-- OP_5-1 -->
     <g transform="translate(218.2757 453.572031)scale(0.1 -0.1)">
      <use xlink:href="#DejaVuSans-Bold-79"/>
      <use x="85.009766" xlink:href="#DejaVuSans-Bold-80"/>
      <use x="158.300781" xlink:href="#DejaVuSans-Bold-95"/>
      <use x="208.300781" xlink:href="#DejaVuSans-Bold-53"/>
      <use x="277.880859" xlink:href="#DejaVuSans-Bold-45"/>
      <use x="319.384766" xlink:href="#DejaVuSans-Bold-49"/>
     </g>
    </g>
   </g>
   <g id="text_61">
    <g clip-path="url(#pc017d19570)">
     <!-- OP_1-1 -->
     <g transform="translate(295.241218 453.572031)scale(0.1 -0.1)">
      <use xlink:href="#DejaVuSans-Bold-79"/>
      <use x="85.009766" xlink:href="#DejaVuSans-Bold-80"/>
      <use x="158.300781" xlink:href="#DejaVuSans-Bold-95"/>
      <use x="208.300781" xlink:href="#DejaVuSans-Bold-49"/>
      <use x="277.880859" xlink:href="#DejaVuSans-Bold-45"/>
      <use x="319.384766" xlink:href="#DejaVuSans-Bold-49"/>
     </g>
    </g>
   </g>
   <g id="text_62">
    <g clip-path="url(#pc017d19570)">
     <!-- OP_0-2 -->
     <g transform="translate(410.689494 453.572031)scale(0.1 -0.1)">
      <use xlink:href="#DejaVuSans-Bold-79"/>
      <use x="85.009766" xlink:href="#DejaVuSans-Bold-80"/>
      <use x="158.300781" xlink:href="#DejaVuSans-Bold-95"/>
      <use x="208.300781" xlink:href="#DejaVuSans-Bold-48"/>
      <use x="277.880859" xlink:href="#DejaVuSans-Bold-45"/>
      <use x="319.384766" xlink:href="#DejaVuSans-Bold-50"/>
     </g>
    </g>
   </g>
   <g id="text_63">
    <g clip-path="url(#pc017d19570)">
     <!-- OP_1-2 -->
     <g transform="translate(564.620528 453.572031)scale(0.1 -0.1)">
      <use xlink:href="#DejaVuSans-Bold-79"/>
      <use x="85.009766" xlink:href="#DejaVuSans-Bold-80"/>
      <use x="158.300781" xlink:href="#DejaVuSans-Bold-95"/>
      <use x="208.300781" xlink:href="#DejaVuSans-Bold-49"/>
      <use x="277.880859" xlink:href="#DejaVuSans-Bold-45"/>
      <use x="319.384766" xlink:href="#DejaVuSans-Bold-50"/>
     </g>
    </g>
   </g>
   <g id="text_64">
    <g clip-path="url(#pc017d19570)">
     <!-- OP_7-4 -->
     <g transform="translate(680.068804 453.572031)scale(0.1 -0.1)">
      <use xlink:href="#DejaVuSans-Bold-79"/>
      <use x="85.009766" xlink:href="#DejaVuSans-Bold-80"/>
      <use x="158.300781" xlink:href="#DejaVuSans-Bold-95"/>
      <use x="208.300781" xlink:href="#DejaVuSans-Bold-55"/>
      <use x="277.880859" xlink:href="#DejaVuSans-Bold-45"/>
      <use x="319.384766" xlink:href="#DejaVuSans-Bold-52"/>
     </g>
    </g>
   </g>
   <g id="text_65">
    <g clip-path="url(#pc017d19570)">
     <!-- OP_7-5 -->
     <g transform="translate(795.51708 453.572031)scale(0.1 -0.1)">
      <use xlink:href="#DejaVuSans-Bold-79"/>
      <use x="85.009766" xlink:href="#DejaVuSans-Bold-80"/>
      <use x="158.300781" xlink:href="#DejaVuSans-Bold-95"/>
      <use x="208.300781" xlink:href="#DejaVuSans-Bold-55"/>
      <use x="277.880859" xlink:href="#DejaVuSans-Bold-45"/>
      <use x="319.384766" xlink:href="#DejaVuSans-Bold-53"/>
     </g>
    </g>
   </g>
   <g id="text_66">
    <g clip-path="url(#pc017d19570)">
     <!-- OP_0-5 -->
     <g transform="translate(910.965356 453.572031)scale(0.1 -0.1)">
      <use xlink:href="#DejaVuSans-Bold-79"/>
      <use x="85.009766" xlink:href="#DejaVuSans-Bold-80"/>
      <use x="158.300781" xlink:href="#DejaVuSans-Bold-95"/>
      <use x="208.300781" xlink:href="#DejaVuSans-Bold-48"/>
      <use x="277.880859" xlink:href="#DejaVuSans-Bold-45"/>
      <use x="319.384766" xlink:href="#DejaVuSans-Bold-53"/>
     </g>
    </g>
   </g>
   <g id="text_67">
    <g clip-path="url(#pc017d19570)">
     <!-- OP_9-5 -->
     <g transform="translate(1026.413631 453.572031)scale(0.1 -0.1)">
      <use xlink:href="#DejaVuSans-Bold-79"/>
      <use x="85.009766" xlink:href="#DejaVuSans-Bold-80"/>
      <use x="158.300781" xlink:href="#DejaVuSans-Bold-95"/>
      <use x="208.300781" xlink:href="#DejaVuSans-Bold-57"/>
      <use x="277.880859" xlink:href="#DejaVuSans-Bold-45"/>
      <use x="319.384766" xlink:href="#DejaVuSans-Bold-53"/>
     </g>
    </g>
   </g>
   <g id="text_68">
    <g clip-path="url(#pc017d19570)">
     <!-- OP_6-5 -->
     <g transform="translate(1180.344666 453.572031)scale(0.1 -0.1)">
      <use xlink:href="#DejaVuSans-Bold-79"/>
      <use x="85.009766" xlink:href="#DejaVuSans-Bold-80"/>
      <use x="158.300781" xlink:href="#DejaVuSans-Bold-95"/>
      <use x="208.300781" xlink:href="#DejaVuSans-Bold-54"/>
      <use x="277.880859" xlink:href="#DejaVuSans-Bold-45"/>
      <use x="319.384766" xlink:href="#DejaVuSans-Bold-53"/>
     </g>
    </g>
   </g>
   <g id="text_69">
    <g clip-path="url(#pc017d19570)">
     <!-- OP_5-6 -->
     <g transform="translate(1257.310183 453.572031)scale(0.1 -0.1)">
      <use xlink:href="#DejaVuSans-Bold-79"/>
      <use x="85.009766" xlink:href="#DejaVuSans-Bold-80"/>
      <use x="158.300781" xlink:href="#DejaVuSans-Bold-95"/>
      <use x="208.300781" xlink:href="#DejaVuSans-Bold-53"/>
      <use x="277.880859" xlink:href="#DejaVuSans-Bold-45"/>
      <use x="319.384766" xlink:href="#DejaVuSans-Bold-54"/>
     </g>
    </g>
   </g>
   <g id="text_70">
    <g clip-path="url(#pc017d19570)">
     <!-- OP_9-6 -->
     <g transform="translate(1103.379149 453.572031)scale(0.1 -0.1)">
      <use xlink:href="#DejaVuSans-Bold-79"/>
      <use x="85.009766" xlink:href="#DejaVuSans-Bold-80"/>
      <use x="158.300781" xlink:href="#DejaVuSans-Bold-95"/>
      <use x="208.300781" xlink:href="#DejaVuSans-Bold-57"/>
      <use x="277.880859" xlink:href="#DejaVuSans-Bold-45"/>
      <use x="319.384766" xlink:href="#DejaVuSans-Bold-54"/>
     </g>
    </g>
   </g>
   <g id="text_71">
    <!-- Flexible Job Shop Solution -->
    <g transform="translate(660.404063 63.12)scale(0.12 -0.12)">
     <defs>
      <path d="M 9.8125 72.90625 
L 51.703125 72.90625 
L 51.703125 64.59375 
L 19.671875 64.59375 
L 19.671875 43.109375 
L 48.578125 43.109375 
L 48.578125 34.8125 
L 19.671875 34.8125 
L 19.671875 0 
L 9.8125 0 
z
" id="DejaVuSans-70"/>
      <path d="M 9.421875 75.984375 
L 18.40625 75.984375 
L 18.40625 0 
L 9.421875 0 
z
" id="DejaVuSans-108"/>
      <path d="M 54.890625 54.6875 
L 35.109375 28.078125 
L 55.90625 0 
L 45.3125 0 
L 29.390625 21.484375 
L 13.484375 0 
L 2.875 0 
L 24.125 28.609375 
L 4.6875 54.6875 
L 15.28125 54.6875 
L 29.78125 35.203125 
L 44.28125 54.6875 
z
" id="DejaVuSans-120"/>
      <path d="M 48.6875 27.296875 
Q 48.6875 37.203125 44.609375 42.84375 
Q 40.53125 48.484375 33.40625 48.484375 
Q 26.265625 48.484375 22.1875 42.84375 
Q 18.109375 37.203125 18.109375 27.296875 
Q 18.109375 17.390625 22.1875 11.75 
Q 26.265625 6.109375 33.40625 6.109375 
Q 40.53125 6.109375 44.609375 11.75 
Q 48.6875 17.390625 48.6875 27.296875 
z
M 18.109375 46.390625 
Q 20.953125 51.265625 25.265625 53.625 
Q 29.59375 56 35.59375 56 
Q 45.5625 56 51.78125 48.09375 
Q 58.015625 40.1875 58.015625 27.296875 
Q 58.015625 14.40625 51.78125 6.484375 
Q 45.5625 -1.421875 35.59375 -1.421875 
Q 29.59375 -1.421875 25.265625 0.953125 
Q 20.953125 3.328125 18.109375 8.203125 
L 18.109375 0 
L 9.078125 0 
L 9.078125 75.984375 
L 18.109375 75.984375 
z
" id="DejaVuSans-98"/>
      <path id="DejaVuSans-32"/>
      <path d="M 9.8125 72.90625 
L 19.671875 72.90625 
L 19.671875 5.078125 
Q 19.671875 -8.109375 14.671875 -14.0625 
Q 9.671875 -20.015625 -1.421875 -20.015625 
L -5.171875 -20.015625 
L -5.171875 -11.71875 
L -2.09375 -11.71875 
Q 4.4375 -11.71875 7.125 -8.046875 
Q 9.8125 -4.390625 9.8125 5.078125 
z
" id="DejaVuSans-74"/>
      <path d="M 30.609375 48.390625 
Q 23.390625 48.390625 19.1875 42.75 
Q 14.984375 37.109375 14.984375 27.296875 
Q 14.984375 17.484375 19.15625 11.84375 
Q 23.34375 6.203125 30.609375 6.203125 
Q 37.796875 6.203125 41.984375 11.859375 
Q 46.1875 17.53125 46.1875 27.296875 
Q 46.1875 37.015625 41.984375 42.703125 
Q 37.796875 48.390625 30.609375 48.390625 
z
M 30.609375 56 
Q 42.328125 56 49.015625 48.375 
Q 55.71875 40.765625 55.71875 27.296875 
Q 55.71875 13.875 49.015625 6.21875 
Q 42.328125 -1.421875 30.609375 -1.421875 
Q 18.84375 -1.421875 12.171875 6.21875 
Q 5.515625 13.875 5.515625 27.296875 
Q 5.515625 40.765625 12.171875 48.375 
Q 18.84375 56 30.609375 56 
z
" id="DejaVuSans-111"/>
      <path d="M 53.515625 70.515625 
L 53.515625 60.890625 
Q 47.90625 63.578125 42.921875 64.890625 
Q 37.9375 66.21875 33.296875 66.21875 
Q 25.25 66.21875 20.875 63.09375 
Q 16.5 59.96875 16.5 54.203125 
Q 16.5 49.359375 19.40625 46.890625 
Q 22.3125 44.4375 30.421875 42.921875 
L 36.375 41.703125 
Q 47.40625 39.59375 52.65625 34.296875 
Q 57.90625 29 57.90625 20.125 
Q 57.90625 9.515625 50.796875 4.046875 
Q 43.703125 -1.421875 29.984375 -1.421875 
Q 24.8125 -1.421875 18.96875 -0.25 
Q 13.140625 0.921875 6.890625 3.21875 
L 6.890625 13.375 
Q 12.890625 10.015625 18.65625 8.296875 
Q 24.421875 6.59375 29.984375 6.59375 
Q 38.421875 6.59375 43.015625 9.90625 
Q 47.609375 13.234375 47.609375 19.390625 
Q 47.609375 24.75 44.3125 27.78125 
Q 41.015625 30.8125 33.5 32.328125 
L 27.484375 33.5 
Q 16.453125 35.6875 11.515625 40.375 
Q 6.59375 45.0625 6.59375 53.421875 
Q 6.59375 63.09375 13.40625 68.65625 
Q 20.21875 74.21875 32.171875 74.21875 
Q 37.3125 74.21875 42.625 73.28125 
Q 47.953125 72.359375 53.515625 70.515625 
z
" id="DejaVuSans-83"/>
      <path d="M 18.109375 8.203125 
L 18.109375 -20.796875 
L 9.078125 -20.796875 
L 9.078125 54.6875 
L 18.109375 54.6875 
L 18.109375 46.390625 
Q 20.953125 51.265625 25.265625 53.625 
Q 29.59375 56 35.59375 56 
Q 45.5625 56 51.78125 48.09375 
Q 58.015625 40.1875 58.015625 27.296875 
Q 58.015625 14.40625 51.78125 6.484375 
Q 45.5625 -1.421875 35.59375 -1.421875 
Q 29.59375 -1.421875 25.265625 0.953125 
Q 20.953125 3.328125 18.109375 8.203125 
z
M 48.6875 27.296875 
Q 48.6875 37.203125 44.609375 42.84375 
Q 40.53125 48.484375 33.40625 48.484375 
Q 26.265625 48.484375 22.1875 42.84375 
Q 18.109375 37.203125 18.109375 27.296875 
Q 18.109375 17.390625 22.1875 11.75 
Q 26.265625 6.109375 33.40625 6.109375 
Q 40.53125 6.109375 44.609375 11.75 
Q 48.6875 17.390625 48.6875 27.296875 
z
" id="DejaVuSans-112"/>
      <path d="M 8.5 21.578125 
L 8.5 54.6875 
L 17.484375 54.6875 
L 17.484375 21.921875 
Q 17.484375 14.15625 20.5 10.265625 
Q 23.53125 6.390625 29.59375 6.390625 
Q 36.859375 6.390625 41.078125 11.03125 
Q 45.3125 15.671875 45.3125 23.6875 
L 45.3125 54.6875 
L 54.296875 54.6875 
L 54.296875 0 
L 45.3125 0 
L 45.3125 8.40625 
Q 42.046875 3.421875 37.71875 1 
Q 33.40625 -1.421875 27.6875 -1.421875 
Q 18.265625 -1.421875 13.375 4.4375 
Q 8.5 10.296875 8.5 21.578125 
z
M 31.109375 56 
z
" id="DejaVuSans-117"/>
      <path d="M 18.3125 70.21875 
L 18.3125 54.6875 
L 36.8125 54.6875 
L 36.8125 47.703125 
L 18.3125 47.703125 
L 18.3125 18.015625 
Q 18.3125 11.328125 20.140625 9.421875 
Q 21.96875 7.515625 27.59375 7.515625 
L 36.8125 7.515625 
L 36.8125 0 
L 27.59375 0 
Q 17.1875 0 13.234375 3.875 
Q 9.28125 7.765625 9.28125 18.015625 
L 9.28125 47.703125 
L 2.6875 47.703125 
L 2.6875 54.6875 
L 9.28125 54.6875 
L 9.28125 70.21875 
z
" id="DejaVuSans-116"/>
     </defs>
     <use xlink:href="#DejaVuSans-70"/>
     <use x="57.519531" xlink:href="#DejaVuSans-108"/>
     <use x="85.302734" xlink:href="#DejaVuSans-101"/>
     <use x="145.076172" xlink:href="#DejaVuSans-120"/>
     <use x="204.255859" xlink:href="#DejaVuSans-105"/>
     <use x="232.039062" xlink:href="#DejaVuSans-98"/>
     <use x="295.515625" xlink:href="#DejaVuSans-108"/>
     <use x="323.298828" xlink:href="#DejaVuSans-101"/>
     <use x="384.822266" xlink:href="#DejaVuSans-32"/>
     <use x="416.609375" xlink:href="#DejaVuSans-74"/>
     <use x="446.101562" xlink:href="#DejaVuSans-111"/>
     <use x="507.283203" xlink:href="#DejaVuSans-98"/>
     <use x="570.759766" xlink:href="#DejaVuSans-32"/>
     <use x="602.546875" xlink:href="#DejaVuSans-83"/>
     <use x="666.023438" xlink:href="#DejaVuSans-104"/>
     <use x="729.402344" xlink:href="#DejaVuSans-111"/>
     <use x="790.583984" xlink:href="#DejaVuSans-112"/>
     <use x="854.060547" xlink:href="#DejaVuSans-32"/>
     <use x="885.847656" xlink:href="#DejaVuSans-83"/>
     <use x="949.324219" xlink:href="#DejaVuSans-111"/>
     <use x="1010.505859" xlink:href="#DejaVuSans-108"/>
     <use x="1038.289062" xlink:href="#DejaVuSans-117"/>
     <use x="1101.667969" xlink:href="#DejaVuSans-116"/>
     <use x="1140.876953" xlink:href="#DejaVuSans-105"/>
     <use x="1168.660156" xlink:href="#DejaVuSans-111"/>
     <use x="1229.841797" xlink:href="#DejaVuSans-110"/>
    </g>
   </g>
   <g id="legend_1">
    <g id="patch_65">
     <path d="M 1286.837 79.949 
L 1290.169 79.949 
Q 1291.835 79.949 1291.835 78.283 
L 1291.835 74.951 
Q 1291.835 73.285 1290.169 73.285 
L 1286.837 73.285 
Q 1285.171 73.285 1285.171 74.951 
L 1285.171 78.283 
Q 1285.171 79.949 1286.837 79.949 
z
" style="fill:#ffffff;opacity:0.8;stroke:#cccccc;stroke-linejoin:miter;"/>
    </g>
   </g>
  </g>
 </g>
 <defs>
  <clipPath id="pc017d19570">
   <rect height="443.52" width="1116" x="180" y="69.12"/>
  </clipPath>
 </defs>
</svg>
